<svg version="1.1" xmlns="http://www.w3.org/2000/svg" viewBox="0 0 2148.333333333332 1161.6666666666679" width="2148.333333333332" height="1161.6666666666679" filter="invert(93%) hue-rotate(180deg)">
    <!-- svg-source:excalidraw -->

    <defs>
        <style class="style-fonts">
            @font-face {
            font-family: "Virgil";
            src: url("https://excalidraw.com/Virgil.woff2");
            }
            @font-face {
            font-family: "Cascadia";
            src: url("https://excalidraw.com/Cascadia.woff2");
            }
            @font-face {
            font-family: "Assistant";
            src: url("https://excalidraw.com/Assistant-Regular.woff2");
            }
        </style>

    </defs>
    <rect x="0" y="0" width="2148.333333333332" height="1161.6666666666679" fill="#ffffff"></rect><g stroke-linecap="round" transform="translate(10 10) rotate(0 1064.166666666666 570.8333333333339)"><path d="M7.86 8.16 C7.86 8.16, 7.86 8.16, 7.86 8.16 M7.86 8.16 C7.86 8.16, 7.86 8.16, 7.86 8.16 M0.26 41.3 C12.63 26.91, 23.06 14.66, 36.34 -0.21 M0.26 41.3 C9.61 30.25, 17.4 19.75, 36.34 -0.21 M0.52 65.38 C16.82 45.01, 33.2 27.49, 57.6 -0.28 M0.52 65.38 C18.65 45.94, 35.59 25.2, 57.6 -0.28 M0.13 90.22 C20.4 65.7, 43.4 42.45, 78.2 0.41 M0.13 90.22 C26.05 60.78, 50.74 31.77, 78.2 0.41 M0.4 114.3 C32.66 78.45, 63.5 42.52, 99.46 0.34 M0.4 114.3 C31.36 80.71, 61.45 46.09, 99.46 0.34 M0.01 139.13 C43.28 89.31, 85.77 43.6, 120.72 0.27 M0.01 139.13 C42.64 91.24, 86.22 42.26, 120.72 0.27 M0.27 163.22 C43.51 115.66, 81.86 69.99, 141.98 0.2 M0.27 163.22 C31.91 125.52, 63.97 89.57, 141.98 0.2 M0.54 187.3 C55.24 122.54, 112.79 56.39, 163.24 0.13 M0.54 187.3 C41.05 139.59, 80.58 92.05, 163.24 0.13 M0.15 212.13 C64.98 137.18, 128.74 61.95, 184.5 0.06 M0.15 212.13 C47.94 157.37, 94.4 102.47, 184.5 0.06 M0.42 236.22 C57 170.92, 116.4 102.99, 205.76 -0.01 M0.42 236.22 C71.1 152.2, 142.92 69.44, 205.76 -0.01 M0.03 261.05 C77.9 172.72, 156.79 82.35, 227.02 -0.08 M0.03 261.05 C84.02 164.7, 168.74 67.44, 227.02 -0.08 M0.29 285.13 C79.2 192.7, 161.78 97.82, 248.28 -0.15 M0.29 285.13 C81.52 191.81, 161.48 100.85, 248.28 -0.15 M-0.1 309.97 C74.65 222.27, 152.81 133.48, 269.54 -0.22 M-0.1 309.97 C57.99 243.96, 114.9 177.99, 269.54 -0.22 M0.17 334.05 C83.96 237.02, 166.9 140.33, 290.8 -0.28 M0.17 334.05 C79.53 244.75, 157.8 154.62, 290.8 -0.28 M0.44 358.13 C90.73 252.58, 184.49 145.3, 311.41 0.4 M0.44 358.13 C64.42 283.68, 128.45 209.83, 311.41 0.4 M0.05 382.97 C108.64 259.06, 215.01 135.32, 332.67 0.33 M0.05 382.97 C73.27 300.31, 145.82 217.06, 332.67 0.33 M0.31 407.05 C106.89 286.74, 211.02 165.65, 353.93 0.26 M0.31 407.05 C91.49 300.74, 183.13 195.26, 353.93 0.26 M-0.08 431.89 C85.98 331.68, 173.74 231.13, 375.19 0.19 M-0.08 431.89 C84.3 333.61, 170.07 235.07, 375.19 0.19 M0.19 455.97 C117.43 318.33, 234.17 182.93, 396.45 0.12 M0.19 455.97 C101.27 338.98, 202.25 222.82, 396.45 0.12 M0.46 480.05 C155.98 301.48, 309.62 125.15, 417.71 0.06 M0.46 480.05 C118.92 342.27, 237.91 205.02, 417.71 0.06 M0.07 504.89 C133.89 350.6, 268.8 196.25, 438.97 -0.01 M0.07 504.89 C160.47 321.04, 319.44 137.7, 438.97 -0.01 M0.33 528.97 C148.8 359.55, 295.39 191.02, 460.23 -0.08 M0.33 528.97 C96.51 419.04, 193.13 307.81, 460.23 -0.08 M-0.06 553.81 C111.54 428.13, 221.64 302.09, 481.49 -0.15 M-0.06 553.81 C157.35 372.63, 313.89 192.8, 481.49 -0.15 M0.21 577.89 C115.15 447.53, 228.9 317.65, 502.75 -0.22 M0.21 577.89 C174.92 373.66, 350.85 171.58, 502.75 -0.22 M0.48 601.97 C185.23 387.62, 371.24 173.03, 523.35 0.47 M0.48 601.97 C190.73 380.95, 382.65 159.96, 523.35 0.47 M0.09 626.81 C147.2 456.13, 293.32 287.16, 544.61 0.4 M0.09 626.81 C153.51 452.45, 306.79 277.02, 544.61 0.4 M0.35 650.89 C166.32 465.31, 329.15 276.9, 565.87 0.33 M0.35 650.89 C169.39 456.67, 335.8 264.45, 565.87 0.33 M-0.04 675.72 C223.02 421.94, 446.5 164.46, 587.14 0.26 M-0.04 675.72 C182.7 467.43, 364.05 258.84, 587.14 0.26 M0.23 699.81 C131.76 550.44, 260.02 401.51, 608.4 0.19 M0.23 699.81 C236.49 424.88, 474.73 150.35, 608.4 0.19 M0.49 723.89 C206.72 485.03, 412.93 245.9, 629.66 0.12 M0.49 723.89 C232.82 452.55, 466.77 183.12, 629.66 0.12 M0.11 748.72 C137.87 593.19, 275.85 434.59, 650.92 0.05 M0.11 748.72 C210.9 505.94, 419.97 265.37, 650.92 0.05 M0.37 772.81 C162.16 588.07, 322.98 403.1, 672.18 -0.02 M0.37 772.81 C227.53 513.24, 454.31 252.54, 672.18 -0.02 M-0.02 797.64 C254.89 507.03, 507.66 215.6, 693.44 -0.09 M-0.02 797.64 C156.58 615.45, 314.67 433.51, 693.44 -0.09 M0.25 821.72 C192.71 597.59, 389.21 373.03, 714.7 -0.16 M0.25 821.72 C211.63 577.46, 425.19 332.26, 714.7 -0.16 M0.51 845.81 C181.4 633.89, 365.08 422.43, 735.96 -0.22 M0.51 845.81 C174.76 644.91, 347.6 447.26, 735.96 -0.22 M0.12 870.64 C258.75 572.32, 516.88 273.96, 756.56 0.46 M0.12 870.64 C215.81 622.01, 430.03 375.71, 756.56 0.46 M0.39 894.72 C184.59 688.2, 364.3 480.44, 777.82 0.39 M0.39 894.72 C269.32 586.07, 536.73 278.99, 777.82 0.39 M0 919.56 C318.22 554.59, 637.11 187.38, 799.08 0.32 M0 919.56 C273.1 598.75, 549.39 281, 799.08 0.32 M0.27 943.64 C315.47 582.28, 627.96 223.27, 820.34 0.25 M0.27 943.64 C280.19 622.58, 557.45 303.42, 820.34 0.25 M0.53 967.72 C292.88 634.07, 584.36 299.64, 841.6 0.19 M0.53 967.72 C226.79 702.07, 455.06 439.93, 841.6 0.19 M0.14 992.56 C304.7 640.95, 610.95 288.86, 862.86 0.12 M0.14 992.56 C244.55 710.63, 487.7 431.86, 862.86 0.12 M0.41 1016.64 C292.6 680.07, 584.07 345.22, 884.12 0.05 M0.41 1016.64 C240.83 734.41, 484.19 455.14, 884.12 0.05 M0.02 1041.48 C278.57 716.84, 561.31 391.48, 905.38 -0.02 M0.02 1041.48 C196.95 817.41, 391.02 593.94, 905.38 -0.02 M0.29 1065.56 C224.38 811.62, 445.72 556.51, 926.64 -0.09 M0.29 1065.56 C275.29 744.43, 553.7 423.24, 926.64 -0.09 M-0.1 1090.4 C193.4 867.81, 385.32 647.69, 947.9 -0.16 M-0.1 1090.4 C244.81 808.66, 491.11 526.11, 947.9 -0.16 M0.82 1113.72 C203.75 875.48, 408.59 639.36, 969.16 -0.23 M0.82 1113.72 C315 754.58, 627.6 394.24, 969.16 -0.23 M6.99 1131.01 C276.61 822.88, 542.81 517, 989.77 0.46 M6.99 1131.01 C317.4 770.57, 630.15 411.49, 989.77 0.46 M20.38 1140 C342.39 767.26, 670.07 392.28, 1011.03 0.39 M20.38 1140 C259.93 860.98, 503.38 580.69, 1011.03 0.39 M40.33 1141.44 C402.78 728.01, 760.32 317.14, 1032.29 0.32 M40.33 1141.44 C407.02 717.62, 774.15 294.05, 1032.29 0.32 M60.93 1142.13 C373.52 779.33, 690.27 414.44, 1053.55 0.25 M60.93 1142.13 C260.54 913.86, 460.66 683.39, 1053.55 0.25 M82.19 1142.06 C290.4 899.24, 500.05 659.1, 1074.81 0.18 M82.19 1142.06 C454.35 707.67, 830.17 275.64, 1074.81 0.18 M103.45 1141.99 C350.58 849.81, 603.11 559.9, 1096.07 0.11 M103.45 1141.99 C359.34 852.79, 612.09 562.34, 1096.07 0.11 M124.71 1141.92 C471.29 742.16, 819.61 340.99, 1117.33 0.04 M124.71 1141.92 C506.74 701.89, 886.3 265.63, 1117.33 0.04 M145.97 1141.85 C394.63 857.76, 643.37 571.26, 1138.59 -0.03 M145.97 1141.85 C439.58 802.65, 735.08 463.55, 1138.59 -0.03 M167.23 1141.78 C380.67 896.55, 590.16 656.5, 1159.85 -0.09 M167.23 1141.78 C367.15 913.46, 567.58 682.86, 1159.85 -0.09 M188.49 1141.71 C553.49 715.93, 922.83 290.75, 1181.11 -0.16 M188.49 1141.71 C535.11 739.46, 884.85 338.41, 1181.11 -0.16 M209.75 1141.64 C424.19 896.75, 636.65 652.44, 1202.37 -0.23 M209.75 1141.64 C540.22 756.26, 875.79 371.24, 1202.37 -0.23 M231.01 1141.57 C559.82 764.29, 883.06 391.14, 1222.97 0.45 M231.01 1141.57 C499.29 832.07, 767.56 522.84, 1222.97 0.45 M252.27 1141.51 C526.65 823.14, 802.39 507.35, 1244.23 0.38 M252.27 1141.51 C514.26 834.83, 779.99 528.37, 1244.23 0.38 M273.53 1141.44 C637.29 719.2, 1003.71 297.75, 1265.49 0.32 M273.53 1141.44 C506.24 869.96, 740.9 600.49, 1265.49 0.32 M294.14 1142.12 C606.97 781.78, 919.72 421.57, 1286.75 0.25 M294.14 1142.12 C649.23 741.49, 1000.21 336.99, 1286.75 0.25 M315.4 1142.05 C705.96 685.4, 1100.88 230.92, 1308.01 0.18 M315.4 1142.05 C568.59 846.04, 825.77 550.41, 1308.01 0.18 M336.66 1141.98 C674.05 759.11, 1008.06 374.24, 1329.27 0.11 M336.66 1141.98 C669.41 760.72, 999.81 380.08, 1329.27 0.11 M357.92 1141.91 C607.93 847.33, 862.97 554.94, 1350.53 0.04 M357.92 1141.91 C640.53 816.55, 920.03 494.15, 1350.53 0.04 M379.18 1141.85 C728.01 749.69, 1071.33 353.52, 1371.79 -0.03 M379.18 1141.85 C602.04 883.21, 824.83 627.67, 1371.79 -0.03 M400.44 1141.78 C629.87 877.33, 862.98 609.09, 1393.05 -0.1 M400.44 1141.78 C676.27 830.71, 948.08 517.59, 1393.05 -0.1 M421.7 1141.71 C661.61 865.24, 903.98 585.7, 1414.31 -0.17 M421.7 1141.71 C649.86 880.38, 874.77 622.55, 1414.31 -0.17 M442.96 1141.64 C811.57 723.51, 1175.95 302.32, 1435.57 -0.24 M442.96 1141.64 C778.85 755.07, 1113.88 369.07, 1435.57 -0.24 M464.22 1141.57 C784.29 769.24, 1108.16 398.88, 1456.18 0.45 M464.22 1141.57 C679.2 897, 893.69 650.19, 1456.18 0.45 M485.48 1141.5 C818.05 756.48, 1151.89 372.54, 1477.44 0.38 M485.48 1141.5 C682.28 910.67, 882.9 680.21, 1477.44 0.38 M506.74 1141.43 C884.57 708.5, 1260.3 274.86, 1498.7 0.31 M506.74 1141.43 C756.81 849.94, 1007.79 561.08, 1498.7 0.31 M527.34 1142.12 C889.22 722.1, 1250.23 305.6, 1519.96 0.24 M527.34 1142.12 C855.95 767.38, 1182.2 393.02, 1519.96 0.24 M548.6 1142.05 C934.6 690.11, 1325.67 240.66, 1541.22 0.17 M548.6 1142.05 C821.63 833.63, 1093.25 521.89, 1541.22 0.17 M569.86 1141.98 C893.82 767.03, 1215.88 397.49, 1562.48 0.1 M569.86 1141.98 C770.28 910.92, 973.32 676.89, 1562.48 0.1 M591.12 1141.91 C835.45 862.79, 1079.89 581.57, 1583.74 0.04 M591.12 1141.91 C979.2 690.23, 1370.59 240.15, 1583.74 0.04 M612.38 1141.84 C840.6 874.64, 1071.24 608.77, 1605 -0.03 M612.38 1141.84 C862.39 852.93, 1112.47 565.1, 1605 -0.03 M633.64 1141.77 C851.81 899.58, 1066.99 652.92, 1626.26 -0.1 M633.64 1141.77 C843.74 898.53, 1054.46 655.31, 1626.26 -0.1 M654.9 1141.7 C1003.82 739.42, 1349.53 342.07, 1647.52 -0.17 M654.9 1141.7 C966.83 776.85, 1282.82 413.52, 1647.52 -0.17 M676.16 1141.63 C945.64 828.6, 1216.38 516.13, 1668.78 -0.24 M676.16 1141.63 C980.75 791.79, 1282.88 443.83, 1668.78 -0.24 M697.42 1141.57 C973.94 817.79, 1252.12 496.49, 1689.38 0.44 M697.42 1141.57 C1076.89 702.57, 1457.01 266.06, 1689.38 0.44 M718.68 1141.5 C1104.46 704.04, 1486.51 265.52, 1710.64 0.38 M718.68 1141.5 C1041.22 767.43, 1365.43 395.26, 1710.64 0.38 M739.94 1141.43 C1022.39 821.97, 1301.25 500.27, 1731.9 0.31 M739.94 1141.43 C988.16 848.78, 1239.92 559.16, 1731.9 0.31 M760.55 1142.11 C974.82 898.83, 1187.45 654.09, 1753.16 0.24 M760.55 1142.11 C1068.91 779.49, 1380.41 420.62, 1753.16 0.24 M781.81 1142.04 C1123.87 746.45, 1468.07 349.97, 1774.42 0.17 M781.81 1142.04 C1048.37 832.77, 1316.54 524.2, 1774.42 0.17 M803.07 1141.98 C1017.7 895.92, 1233.63 646.11, 1795.68 0.1 M803.07 1141.98 C1184.18 708.05, 1565.09 270.04, 1795.68 0.1 M824.33 1141.91 C1142.58 776.15, 1458.1 410.79, 1816.95 0.03 M824.33 1141.91 C1222.53 686.6, 1618.13 230.32, 1816.95 0.03 M845.59 1141.84 C1188.24 742.79, 1535.66 343.44, 1838.21 -0.04 M845.59 1141.84 C1070.59 880.96, 1298.64 619, 1838.21 -0.04 M866.85 1141.77 C1254.66 701.47, 1640.51 258.12, 1859.47 -0.11 M866.85 1141.77 C1205.42 755.27, 1540.86 369.65, 1859.47 -0.11 M888.11 1141.7 C1243.46 734.18, 1596.63 327.25, 1880.73 -0.18 M888.11 1141.7 C1111.84 886.31, 1336.21 627.55, 1880.73 -0.18 M909.37 1141.63 C1295.96 697.96, 1679.55 257.28, 1901.99 -0.25 M909.37 1141.63 C1118.36 898.68, 1331.15 653.32, 1901.99 -0.25 M930.63 1141.56 C1211.12 816.52, 1490.12 494.61, 1922.59 0.44 M930.63 1141.56 C1260.89 765.34, 1587.76 389.26, 1922.59 0.44 M951.89 1141.49 C1242.76 808.59, 1532.34 476.54, 1943.85 0.37 M951.89 1141.49 C1231.55 818.63, 1514.27 493.12, 1943.85 0.37 M973.15 1141.42 C1337.9 723.43, 1700.15 305.78, 1965.11 0.3 M973.15 1141.42 C1344.35 714.52, 1713.93 289.82, 1965.11 0.3 M993.75 1142.11 C1323.08 768.82, 1649.19 392.04, 1986.37 0.23 M993.75 1142.11 C1228.83 867.82, 1464.35 596.67, 1986.37 0.23 M1015.01 1142.04 C1357.23 752.87, 1696.85 363, 2007.63 0.16 M1015.01 1142.04 C1378.71 719.05, 1745.47 296.65, 2007.63 0.16 M1036.27 1141.97 C1303.26 835.27, 1568.25 529.21, 2028.89 0.1 M1036.27 1141.97 C1323.53 815.46, 1607.9 488.77, 2028.89 0.1 M1057.53 1141.9 C1390.13 757.6, 1725.19 370.74, 2050.15 0.03 M1057.53 1141.9 C1271.56 893.15, 1484.78 648.41, 2050.15 0.03 M1078.79 1141.83 C1398.58 776.32, 1718.25 409.04, 2071.41 -0.04 M1078.79 1141.83 C1357.3 822.21, 1633.49 503.88, 2071.41 -0.04 M1100.05 1141.76 C1477.61 704.71, 1856.99 269.24, 2092.67 -0.11 M1100.05 1141.76 C1474.68 706.29, 1852.86 270.86, 2092.67 -0.11 M1121.31 1141.7 C1372.38 858.82, 1620.94 572.4, 2111.31 2.84 M1121.31 1141.7 C1510.51 695.28, 1896.66 251.3, 2111.31 2.84 M1142.57 1141.63 C1430.25 812.29, 1717.8 483.9, 2124.04 12.58 M1142.57 1141.63 C1361.48 893.96, 1578.17 644.72, 2124.04 12.58 M1163.83 1141.56 C1413.65 849.64, 1664.61 558.35, 2128.24 32.13 M1163.83 1141.56 C1384.64 893.74, 1601.52 644.66, 2128.24 32.13 M1185.09 1141.49 C1547.01 725.09, 1909.35 310.67, 2128.51 56.22 M1185.09 1141.49 C1439.84 851.64, 1692.67 560.49, 2128.51 56.22 M1206.36 1141.42 C1489 815.77, 1768.49 494.93, 2128.12 81.05 M1206.36 1141.42 C1502.19 804.96, 1796.43 465.93, 2128.12 81.05 M1226.96 1142.11 C1557.48 760.9, 1886.63 382.8, 2128.38 105.13 M1226.96 1142.11 C1530.94 796.09, 1832.35 449.63, 2128.38 105.13 M1248.22 1142.04 C1574.38 768.94, 1901.05 391.9, 2128.65 129.22 M1248.22 1142.04 C1459.2 900.92, 1668.96 660.39, 2128.65 129.22 M1269.48 1141.97 C1483.97 898.63, 1696.11 653.43, 2128.26 154.05 M1269.48 1141.97 C1446.75 930.24, 1628.73 721.2, 2128.26 154.05 M1290.74 1141.9 C1464.94 937.95, 1640.1 736.35, 2128.53 178.13 M1290.74 1141.9 C1523.7 876.17, 1754.01 611.55, 2128.53 178.13 M1312 1141.83 C1500.71 927.25, 1687.98 713.31, 2128.14 202.97 M1312 1141.83 C1614.18 789.47, 1917.79 440.88, 2128.14 202.97 M1333.26 1141.76 C1491.6 959.53, 1650.14 777.21, 2128.4 227.05 M1333.26 1141.76 C1617.01 816.65, 1898.66 492.64, 2128.4 227.05 M1354.52 1141.69 C1514.09 959.2, 1673.32 775.87, 2128.67 251.13 M1354.52 1141.69 C1560.07 903.24, 1766.38 665.94, 2128.67 251.13 M1375.78 1141.62 C1586.42 899.45, 1795.13 660.35, 2128.28 275.97 M1375.78 1141.62 C1623.56 855.59, 1871.7 570.01, 2128.28 275.97 M1397.04 1141.55 C1596.98 915.32, 1794.85 687.99, 2128.55 300.05 M1397.04 1141.55 C1565.24 952.01, 1731.05 761.36, 2128.55 300.05 M1418.3 1141.48 C1571.34 963.59, 1727.93 785.87, 2128.16 324.89 M1418.3 1141.48 C1620.9 908.06, 1823.65 675.04, 2128.16 324.89 M1439.56 1141.42 C1582.69 977.54, 1727.88 809.87, 2128.42 348.97 M1439.56 1141.42 C1692.12 853.49, 1942.38 565.03, 2128.42 348.97 M1460.17 1142.1 C1689.21 873.93, 1921.63 608.61, 2128.03 373.81 M1460.17 1142.1 C1612.83 964.92, 1768.47 786.03, 2128.03 373.81 M1481.43 1142.03 C1618.96 984.92, 1752.61 830.82, 2128.3 397.89 M1481.43 1142.03 C1653.7 944.32, 1826.08 745.78, 2128.3 397.89 M1502.69 1141.96 C1644.35 980.07, 1785.82 816.83, 2128.57 421.97 M1502.69 1141.96 C1638.66 985.42, 1774.6 829.13, 2128.57 421.97 M1523.95 1141.89 C1731.94 903.48, 1938.24 664.38, 2128.18 446.81 M1523.95 1141.89 C1709.33 927.53, 1894.76 714.67, 2128.18 446.81 M1545.21 1141.82 C1763.23 891.9, 1981.95 640.3, 2128.44 470.89 M1545.21 1141.82 C1666.01 1002.48, 1788.01 861.33, 2128.44 470.89 M1566.47 1141.76 C1725.6 957.8, 1884.03 772.95, 2128.05 495.72 M1566.47 1141.76 C1754.71 924.24, 1942.66 708.92, 2128.05 495.72 M1587.73 1141.69 C1772.54 924.71, 1959.49 708.98, 2128.32 519.81 M1587.73 1141.69 C1704.4 1009.83, 1818.95 877.36, 2128.32 519.81 M1608.99 1141.62 C1715.2 1017.87, 1821.67 896.11, 2128.59 543.89 M1608.99 1141.62 C1803.38 915.51, 1999.74 689.94, 2128.59 543.89 M1630.25 1141.55 C1753.17 1001.16, 1875.58 859.48, 2128.2 568.72 M1630.25 1141.55 C1807.87 934.88, 1986.07 730.53, 2128.2 568.72 M1651.51 1141.48 C1780.24 996.83, 1906.61 852.26, 2128.46 592.81 M1651.51 1141.48 C1815.66 952.03, 1980.98 761.57, 2128.46 592.81 M1672.77 1141.41 C1775.99 1024.25, 1879.07 906.53, 2128.07 617.64 M1672.77 1141.41 C1767.98 1032.09, 1862.29 924.37, 2128.07 617.64 M1693.37 1142.1 C1833.63 978.32, 1974.94 814.99, 2128.34 641.72 M1693.37 1142.1 C1837.13 977.64, 1981.68 811.62, 2128.34 641.72 M1714.63 1142.03 C1870.49 961.62, 2025.58 783.73, 2128.6 665.81 M1714.63 1142.03 C1816.9 1024.19, 1920.58 904.78, 2128.6 665.81 M1735.89 1141.96 C1831.3 1032.12, 1925.88 922.33, 2128.21 690.64 M1735.89 1141.96 C1854.74 1006.67, 1972.7 872.02, 2128.21 690.64 M1757.15 1141.89 C1844.88 1040.9, 1931.63 940.76, 2128.48 714.72 M1757.15 1141.89 C1834.72 1052.02, 1913.32 962.25, 2128.48 714.72 M1778.41 1141.82 C1905.59 996.02, 2032.5 851.45, 2128.09 739.56 M1778.41 1141.82 C1918.89 980.95, 2058.59 820.87, 2128.09 739.56 M1799.67 1141.75 C1894.92 1031.89, 1991.84 920.35, 2128.36 763.64 M1799.67 1141.75 C1910.28 1014.89, 2021.37 886.98, 2128.36 763.64 M1820.93 1141.68 C1893.7 1060.73, 1964.73 978.48, 2128.62 787.72 M1820.93 1141.68 C1900.94 1051.09, 1980.39 959.71, 2128.62 787.72 M1842.19 1141.61 C1922.84 1052.62, 2000.49 961.59, 2128.23 812.56 M1842.19 1141.61 C1930.86 1037.16, 2020.92 933.98, 2128.23 812.56 M1863.45 1141.54 C1939.74 1052.86, 2017.09 965.7, 2128.5 836.64 M1863.45 1141.54 C1938.64 1053.66, 2013.45 967.76, 2128.5 836.64 M1884.71 1141.48 C1948.23 1066.04, 2012.12 994.42, 2128.11 861.48 M1884.71 1141.48 C1968.03 1044.62, 2052.23 948.22, 2128.11 861.48 M1905.97 1141.41 C1987.5 1045.04, 2072.12 947.61, 2128.38 885.56 M1905.97 1141.41 C1987.23 1048.02, 2067.98 954.46, 2128.38 885.56 M1926.58 1142.09 C2002.27 1055.35, 2076.59 970.33, 2128.64 909.64 M1926.58 1142.09 C1981.96 1079.45, 2036.46 1015.3, 2128.64 909.64 M1947.84 1142.02 C1984.78 1096.32, 2025.52 1052.39, 2128.25 934.48 M1947.84 1142.02 C2015.64 1065.1, 2081.06 988.49, 2128.25 934.48 M1969.1 1141.95 C2010.91 1093.25, 2053.65 1045.36, 2128.52 958.56 M1969.1 1141.95 C2013 1091.33, 2055.05 1042.38, 2128.52 958.56 M1990.36 1141.89 C2037.62 1086.63, 2082.76 1032.64, 2128.13 983.4 M1990.36 1141.89 C2023.68 1102.87, 2055.53 1066.76, 2128.13 983.4 M2011.62 1141.82 C2044.1 1106.27, 2072.26 1070.01, 2128.4 1007.48 M2011.62 1141.82 C2049.79 1096.79, 2089.16 1052.59, 2128.4 1007.48 M2032.88 1141.75 C2065.97 1099.33, 2103.6 1058.73, 2128.66 1031.56 M2032.88 1141.75 C2063.19 1108.71, 2092.56 1075.47, 2128.66 1031.56 M2054.14 1141.68 C2069.45 1123.53, 2087.91 1103.74, 2128.27 1056.4 M2054.14 1141.68 C2082.06 1109.21, 2110.68 1075.35, 2128.27 1056.4 M2075.4 1141.61 C2091.03 1121.03, 2109.1 1104.28, 2128.54 1080.48 M2075.4 1141.61 C2095.47 1118.73, 2114.45 1096.8, 2128.54 1080.48 M2096.66 1141.54 C2104.52 1135.09, 2111.45 1125.48, 2128.15 1105.31 M2096.66 1141.54 C2108.63 1127.57, 2120.75 1113.71, 2128.15 1105.31 M12.14 1136.85 C12.14 1136.85, 12.14 1136.85, 12.14 1136.85 M12.14 1136.85 C12.14 1136.85, 12.14 1136.85, 12.14 1136.85 M41.5 1141.18 C26.35 1128.72, 13.03 1115.67, -0.01 1105.09 M41.5 1141.18 C28.97 1130.4, 16.41 1118.36, -0.01 1105.09 M65.58 1140.91 C44.36 1124.12, 22.02 1104.04, -0.08 1083.83 M65.58 1140.91 C40.88 1120.45, 17.59 1099.5, -0.08 1083.83 M90.42 1141.3 C64 1119.01, 38.71 1093.31, 0.61 1063.23 M90.42 1141.3 C64.83 1120.81, 39.82 1097.73, 0.61 1063.23 M114.5 1141.03 C84.72 1115.04, 51.82 1086.41, 0.54 1041.97 M114.5 1141.03 C88.61 1118.4, 64.05 1096.02, 0.54 1041.97 M139.34 1141.42 C100.46 1109.19, 63.11 1074.15, 0.47 1020.71 M139.34 1141.42 C89.15 1098.4, 39.81 1055.12, 0.47 1020.71 M163.42 1141.16 C105.79 1091.42, 46.74 1040.81, 0.4 999.45 M163.42 1141.16 C109.04 1093.87, 52.72 1044.86, 0.4 999.45 M187.5 1140.89 C137.88 1098.53, 90.75 1058.98, 0.33 978.19 M187.5 1140.89 C133.84 1093.15, 79.62 1046.78, 0.33 978.19 M212.34 1141.28 C166.45 1100.34, 118.56 1060.1, 0.26 956.93 M212.34 1141.28 C166.67 1102.74, 122.1 1063.27, 0.26 956.93 M236.42 1141.01 C186.47 1097.44, 135.53 1054.78, 0.19 935.67 M236.42 1141.01 C187.2 1101.05, 138.66 1059.12, 0.19 935.67 M261.25 1141.4 C200.72 1091.5, 142.48 1039.76, 0.13 914.41 M261.25 1141.4 C182.81 1072.92, 104.91 1006.18, 0.13 914.41 M285.34 1141.14 C170.67 1041.66, 57.3 942.56, 0.06 893.15 M285.34 1141.14 C214.46 1079.71, 142.68 1018.09, 0.06 893.15 M310.17 1141.53 C191.02 1036.95, 71.41 933.75, -0.01 871.89 M310.17 1141.53 C194.07 1040.79, 78.72 940.52, -0.01 871.89 M334.25 1141.26 C254.01 1071.37, 173.6 999.99, -0.08 850.63 M334.25 1141.26 C223.28 1045.48, 111.92 949.6, -0.08 850.63 M358.34 1140.99 C279.29 1071.52, 199.29 1001.4, 0.6 830.02 M358.34 1140.99 C215.22 1019.3, 73.77 895.52, 0.6 830.02 M383.17 1141.38 C284.08 1057.29, 187.25 972.82, 0.54 808.76 M383.17 1141.38 C305.15 1075.09, 227.19 1007.6, 0.54 808.76 M407.25 1141.12 C282.06 1030.36, 155.48 920.97, 0.47 787.5 M407.25 1141.12 C314.21 1059.03, 220.79 977.91, 0.47 787.5 M432.09 1141.51 C293.48 1021.13, 155.06 900.61, 0.4 766.24 M432.09 1141.51 C278.38 1009.01, 125.09 875.83, 0.4 766.24 M456.17 1141.24 C305.54 1010.08, 154.63 877.87, 0.33 744.98 M456.17 1141.24 C307.91 1012.63, 159.32 882.78, 0.33 744.98 M480.25 1140.98 C381.58 1052.11, 279.96 965.85, 0.26 723.72 M480.25 1140.98 C322.07 1004.38, 164.58 867.1, 0.26 723.72 M505.09 1141.37 C398.63 1047.9, 292.58 956.45, 0.19 702.46 M505.09 1141.37 C383.67 1035.33, 263.43 930.89, 0.19 702.46 M529.17 1141.1 C387 1016.55, 243.12 892.38, 0.12 681.2 M529.17 1141.1 C421.97 1046.88, 313.33 952.36, 0.12 681.2 M554.01 1141.49 C334.05 950.22, 113.93 759.44, 0.05 659.94 M554.01 1141.49 C384.13 993.81, 213.62 844.82, 0.05 659.94 M578.09 1141.22 C385.26 973.98, 192.27 805.15, -0.02 638.68 M578.09 1141.22 C391.29 981.65, 206.76 820.86, -0.02 638.68 M602.17 1140.96 C378.98 948.92, 157.79 757.29, 0.67 618.08 M602.17 1140.96 C373.88 944.01, 146.58 747.22, 0.67 618.08 M627.01 1141.35 C500.58 1031.38, 373.01 920.54, 0.6 596.82 M627.01 1141.35 C408.82 956.17, 192.64 767.79, 0.6 596.82 M651.09 1141.08 C430.81 948.81, 209.54 756.1, 0.53 575.56 M651.09 1141.08 C468.12 982.36, 285.52 822.91, 0.53 575.56 M675.93 1141.47 C428.01 926.12, 179.18 710.65, 0.46 554.3 M675.93 1141.47 C538.36 1021.03, 401.65 902.4, 0.46 554.3 M700.01 1141.2 C457.38 926.65, 214.18 715.12, 0.39 533.04 M700.01 1141.2 C456.47 928.2, 210.71 714.7, 0.39 533.04 M724.09 1140.94 C509.82 952.13, 296.05 764.93, 0.32 511.78 M724.09 1140.94 C463.29 913.35, 204.97 688.11, 0.32 511.78 M748.93 1141.33 C477.5 901.72, 203.55 663.74, 0.26 490.52 M748.93 1141.33 C514.57 941.66, 281.51 737.89, 0.26 490.52 M773.01 1141.06 C513.42 918.05, 255.2 694.51, 0.19 469.26 M773.01 1141.06 C523.44 927.16, 274.03 710.55, 0.19 469.26 M797.85 1141.45 C489.74 873.47, 180.8 606.17, 0.12 448 M797.85 1141.45 C488.7 871.81, 180.32 602.91, 0.12 448 M821.93 1141.18 C654.3 994.51, 486.66 846.59, 0.05 426.74 M821.93 1141.18 C529.79 890.81, 238.46 637.44, 0.05 426.74 M846.01 1140.92 C552.72 891.04, 262.25 637.63, -0.02 405.48 M846.01 1140.92 C514.11 852.13, 181.41 563.17, -0.02 405.48 M870.84 1141.31 C590.52 901.62, 311.48 658.26, 0.66 384.87 M870.84 1141.31 C561.64 874.64, 252.63 606.33, 0.66 384.87 M894.93 1141.04 C538.81 836.38, 186.98 529.07, 0.6 363.61 M894.93 1141.04 C675.96 949.86, 460.49 761.89, 0.6 363.61 M919.76 1141.43 C677.94 934.61, 436.72 725.05, 0.53 342.35 M919.76 1141.43 C577.46 848.19, 236.65 551.96, 0.53 342.35 M943.84 1141.16 C728.81 958.1, 514.9 770.95, 0.46 321.09 M943.84 1141.16 C718.47 947.03, 491.26 750.2, 0.46 321.09 M967.93 1140.9 C683.13 894.31, 397.12 645.94, 0.39 299.83 M967.93 1140.9 C682.3 895.06, 395.73 646.77, 0.39 299.83 M992.76 1141.29 C636.04 835.62, 281.09 525.93, 0.32 278.57 M992.76 1141.29 C599.27 802.65, 209.31 463.67, 0.32 278.57 M1016.84 1141.02 C745.97 899.9, 473.36 662.72, 0.25 257.31 M1016.84 1141.02 C643.41 815.25, 270.35 490.77, 0.25 257.31 M1041.68 1141.41 C793.89 931.4, 546.71 717.37, 0.18 236.05 M1041.68 1141.41 C736 876.05, 427.06 607.71, 0.18 236.05 M1065.76 1141.15 C742.81 857.57, 416.67 575.64, 0.11 214.79 M1065.76 1141.15 C777.63 890.28, 491.23 641.63, 0.11 214.79 M1090.6 1141.53 C719.95 818.36, 348.66 496.02, 0.04 193.53 M1090.6 1141.53 C821.37 906.25, 554.37 674.12, 0.04 193.53 M1114.68 1141.27 C771.38 845.99, 428.14 546.58, -0.03 172.27 M1114.68 1141.27 C862.09 923.68, 607.56 702.64, -0.03 172.27 M1138.76 1141 C831.24 866.37, 521.39 597.44, 0.66 151.67 M1138.76 1141 C763.85 817.15, 391.61 493.37, 0.66 151.67 M1163.6 1141.39 C856.1 871.51, 548.56 604.59, 0.59 130.41 M1163.6 1141.39 C787.07 817.35, 413.33 492.91, 0.59 130.41 M1187.68 1141.13 C861.39 861.29, 535.01 577.77, 0.52 109.14 M1187.68 1141.13 C800.5 807.33, 412.04 469.61, 0.52 109.14 M1212.52 1141.52 C805.47 785.6, 398.19 432.15, 0.45 87.88 M1212.52 1141.52 C772.64 751.58, 330.13 366.68, 0.45 87.88 M1236.6 1141.25 C849.68 804.33, 467.11 471.65, 0.38 66.62 M1236.6 1141.25 C963.22 900.13, 685.88 659.35, 0.38 66.62 M1260.68 1140.98 C798.39 738.88, 336.87 336.99, 0.32 45.36 M1260.68 1140.98 C976.53 897.77, 691.64 650.01, 0.32 45.36 M1285.52 1141.37 C801.77 725.48, 319.9 307.33, 1 24.76 M1285.52 1141.37 C907.07 811.77, 531.05 484.47, 1 24.76 M1309.6 1141.11 C814.17 708.94, 318.33 279.37, 7.72 9.4 M1309.6 1141.11 C905.78 788.34, 498.12 434.13, 7.72 9.4 M1334.44 1141.5 C815.06 690.65, 297.01 239.71, 22 0.61 M1334.44 1141.5 C1065.11 907.15, 797.01 673.71, 22 0.61 M1358.52 1141.23 C986.82 820.59, 619.23 502.04, 44.57 -0.97 M1358.52 1141.23 C991.5 817.22, 622 495.5, 44.57 -0.97 M1382.6 1140.96 C957.8 768.49, 528.13 395.19, 69.4 -0.58 M1382.6 1140.96 C957.9 774.86, 534.64 406.37, 69.4 -0.58 M1407.44 1141.35 C951.35 750.1, 494.74 352.92, 93.49 -0.85 M1407.44 1141.35 C972.76 761.89, 537.23 382.65, 93.49 -0.85 M1431.52 1141.09 C1097.88 845.1, 762.49 554.87, 118.32 -0.46 M1431.52 1141.09 C1153.91 899.07, 880.23 660.65, 118.32 -0.46 M1456.35 1141.48 C998.44 741.1, 543.45 346.27, 142.4 -0.72 M1456.35 1141.48 C1047.84 792.02, 640.2 437.79, 142.4 -0.72 M1480.43 1141.21 C1093.38 805.02, 709.49 469.71, 166.49 -0.99 M1480.43 1141.21 C1059.3 780.44, 640.55 416.38, 166.49 -0.99 M1504.52 1140.94 C1220.85 887.67, 934.27 638.15, 191.32 -0.6 M1504.52 1140.94 C1235.02 907.13, 962.12 670.24, 191.32 -0.6 M1529.35 1141.33 C1158.05 817.81, 781.69 491.91, 215.4 -0.86 M1529.35 1141.33 C1131.78 794.3, 731.75 446.42, 215.4 -0.86 M1553.43 1141.07 C1046.16 704.77, 539.91 265.63, 240.24 -0.47 M1553.43 1141.07 C1212.28 839.81, 870.52 543.19, 240.24 -0.47 M1578.27 1141.46 C1176.51 786.56, 771.05 435.16, 264.32 -0.74 M1578.27 1141.46 C1166.89 782.99, 756.78 427.55, 264.32 -0.74 M1602.35 1141.19 C1278.68 855.05, 954.6 572.72, 288.4 -1.01 M1602.35 1141.19 C1272.27 855.01, 943.8 569.91, 288.4 -1.01 M1626.43 1140.92 C1151.82 725.09, 672.4 308.27, 313.24 -0.62 M1626.43 1140.92 C1251.72 821.44, 879.68 499.07, 313.24 -0.62 M1651.27 1141.31 C1275.5 818.18, 899.47 491.84, 337.32 -0.88 M1651.27 1141.31 C1381.06 907.47, 1113.82 674.33, 337.32 -0.88 M1675.35 1141.05 C1296.16 811.86, 920.18 485.2, 362.16 -0.49 M1675.35 1141.05 C1337.16 846.33, 1002.6 555.55, 362.16 -0.49 M1700.19 1141.44 C1217.26 720.67, 737.6 303.8, 386.24 -0.76 M1700.19 1141.44 C1316.65 810, 929.76 474.12, 386.24 -0.76 M1724.27 1141.17 C1413.38 872.49, 1099.7 601.97, 410.32 -1.03 M1724.27 1141.17 C1384.86 848.2, 1042.88 550.29, 410.32 -1.03 M1748.35 1140.91 C1460.45 891.07, 1169.29 639.36, 435.16 -0.64 M1748.35 1140.91 C1298.96 750.68, 852.66 362.72, 435.16 -0.64 M1773.19 1141.3 C1496.12 898.41, 1218.26 655.56, 459.24 -0.9 M1773.19 1141.3 C1473.33 878.23, 1173.64 617.58, 459.24 -0.9 M1797.27 1141.03 C1300.03 714.57, 806.44 285.78, 484.08 -0.51 M1797.27 1141.03 C1405.15 796.9, 1008.46 452.46, 484.08 -0.51 M1822.11 1141.42 C1383.26 759.93, 948.37 381.57, 508.16 -0.78 M1822.11 1141.42 C1453.67 822.16, 1085.93 502.58, 508.16 -0.78 M1846.19 1141.15 C1546.04 878.35, 1244.34 615.43, 532.24 -1.05 M1846.19 1141.15 C1330.52 695.96, 818.12 250.88, 532.24 -1.05 M1870.27 1140.89 C1414.52 749.62, 958.05 353.62, 557.08 -0.66 M1870.27 1140.89 C1558.41 876.15, 1250.8 608.15, 557.08 -0.66 M1895.11 1141.28 C1419.74 724.3, 944.88 310.85, 581.16 -0.92 M1895.11 1141.28 C1424.74 737.64, 955.77 329.86, 581.16 -0.92 M1919.19 1141.01 C1470.55 747.58, 1020.28 356.03, 605.99 -0.53 M1919.19 1141.01 C1516.31 792.8, 1114.2 443.07, 605.99 -0.53 M1944.03 1141.4 C1640.63 881.38, 1337.27 617.6, 630.08 -0.8 M1944.03 1141.4 C1674.84 913.48, 1408.5 682.09, 630.08 -0.8 M1968.11 1141.13 C1672.01 884.86, 1372.12 622.84, 654.91 -0.41 M1968.11 1141.13 C1703.12 911.53, 1435.92 679.45, 654.91 -0.41 M1992.94 1141.52 C1628.12 828.81, 1263.23 513.2, 678.99 -0.68 M1992.94 1141.52 C1641.2 832.5, 1285.87 523.29, 678.99 -0.68 M2017.03 1141.26 C1691.91 863.1, 1369.21 582.28, 703.08 -0.94 M2017.03 1141.26 C1712 871.38, 1407.19 606.5, 703.08 -0.94 M2041.11 1140.99 C1753.17 888.44, 1467.09 639.46, 727.91 -0.55 M2041.11 1140.99 C1582.01 739.59, 1121.33 338.68, 727.91 -0.55 M2065.94 1141.38 C1717.01 834.92, 1365.77 529.24, 751.99 -0.82 M2065.94 1141.38 C1558.2 700.76, 1046.05 255.57, 751.99 -0.82 M2090.03 1141.11 C1629.38 738.44, 1166.87 335.62, 776.83 -0.43 M2090.03 1141.11 C1595.3 707.25, 1099.07 275.81, 776.83 -0.43 M2111.84 1138.88 C1732.11 807.51, 1348.53 473.78, 800.91 -0.7 M2111.84 1138.88 C1755.11 824.94, 1397.08 513.3, 800.91 -0.7 M2124.6 1128.77 C1791.21 837.82, 1456.02 546.51, 824.99 -0.96 M2124.6 1128.77 C1694.26 748.29, 1262.72 373.54, 824.99 -0.96 M2128.31 1110.79 C1677.48 717.1, 1227.74 326.25, 849.83 -0.57 M2128.31 1110.79 C1652.74 697.15, 1176.94 284.17, 849.83 -0.57 M2128.24 1089.53 C1761.84 769.65, 1395.36 450.72, 873.91 -0.84 M2128.24 1089.53 C1702.58 724.33, 1277.48 354.1, 873.91 -0.84 M2128.17 1068.27 C1881.43 847.89, 1630.8 630.33, 898.75 -0.45 M2128.17 1068.27 C1674.29 668.45, 1216.56 271.19, 898.75 -0.45 M2128.1 1047.01 C1772.59 736.74, 1418.96 430.09, 922.83 -0.71 M2128.1 1047.01 C1684.51 656.83, 1239.58 269.62, 922.83 -0.71 M2128.79 1026.41 C1846.1 783.72, 1563.56 536.94, 946.91 -0.98 M2128.79 1026.41 C1832.55 762.96, 1531.55 501.92, 946.91 -0.98 M2128.72 1005.15 C1810.43 728.43, 1489.4 448.74, 971.75 -0.59 M2128.72 1005.15 C1739.36 665.05, 1345.95 323.23, 971.75 -0.59 M2128.65 983.89 C1698.59 613.27, 1269.13 239.4, 995.83 -0.86 M2128.65 983.89 C1680.48 598.82, 1233.2 209.67, 995.83 -0.86 M2128.58 962.63 C1749.58 631.25, 1371.2 302.31, 1020.67 -0.47 M2128.58 962.63 C1893.07 755.46, 1659.05 552.28, 1020.67 -0.47 M2128.51 941.37 C1722.51 588.43, 1321.17 239.14, 1044.75 -0.73 M2128.51 941.37 C1840.79 693.49, 1552.96 442.71, 1044.75 -0.73 M2128.44 920.11 C1740.87 582.22, 1354.8 247.79, 1068.83 -1 M2128.44 920.11 C1817.89 652.84, 1510.38 385.23, 1068.83 -1 M2128.37 898.85 C1824.11 638.71, 1520.74 373.31, 1093.67 -0.61 M2128.37 898.85 C1781.38 597.27, 1436.28 297.08, 1093.67 -0.61 M2128.3 877.59 C1826.3 615.92, 1524.17 353.31, 1117.75 -0.88 M2128.3 877.59 C1793.08 585.93, 1460.67 296.73, 1117.75 -0.88 M2128.24 856.33 C1877.5 638.35, 1624.14 418.64, 1142.58 -0.49 M2128.24 856.33 C1770.2 544.29, 1415.1 235.05, 1142.58 -0.49 M2128.17 835.07 C1856.74 599.38, 1586.39 364.63, 1166.67 -0.75 M2128.17 835.07 C1911.67 649.2, 1695.08 460.47, 1166.67 -0.75 M2128.1 813.81 C1851.16 572.24, 1573.4 332.03, 1190.75 -1.02 M2128.1 813.81 C1840.24 565.47, 1555.15 318.15, 1190.75 -1.02 M2128.78 793.2 C1828.91 533.61, 1530.4 274.09, 1215.58 -0.63 M2128.78 793.2 C1837.34 533.96, 1543.06 278.45, 1215.58 -0.63 M2128.71 771.94 C1876.71 553.39, 1625.93 335.62, 1239.67 -0.9 M2128.71 771.94 C1938.51 606.91, 1744.86 439.37, 1239.67 -0.9 M2128.64 750.68 C1926.85 574.47, 1724.54 397.99, 1264.5 -0.51 M2128.64 750.68 C1865.19 523.39, 1600.54 293.13, 1264.5 -0.51 M2128.58 729.42 C1952.44 577.71, 1775.65 424.25, 1288.58 -0.77 M2128.58 729.42 C1833.27 477.3, 1540.1 222.69, 1288.58 -0.77 M2128.51 708.16 C1903.19 511.61, 1679.75 317.7, 1312.67 -1.04 M2128.51 708.16 C1874.51 486.54, 1619.76 264.96, 1312.67 -1.04 M2128.44 686.9 C1884.02 477.41, 1640.76 264.24, 1337.5 -0.65 M2128.44 686.9 C1937.04 522.68, 1746.11 357.32, 1337.5 -0.65 M2128.37 665.64 C1894.71 465.25, 1662.61 263.4, 1361.58 -0.92 M2128.37 665.64 C1962.25 519.55, 1795.44 374.45, 1361.58 -0.92 M2128.3 644.38 C1878.89 428.59, 1631.38 213.27, 1386.42 -0.53 M2128.3 644.38 C1953.21 495.84, 1780.63 345.23, 1386.42 -0.53 M2128.23 623.12 C1946.4 465.77, 1762.93 305.74, 1410.5 -0.79 M2128.23 623.12 C1876.69 403.57, 1627.33 186.95, 1410.5 -0.79 M2128.16 601.86 C1936.1 439.49, 1744.98 273.58, 1434.58 -1.06 M2128.16 601.86 C1879.54 384.31, 1630.07 167.24, 1434.58 -1.06 M2128.09 580.6 C1966.52 439.43, 1802.14 297.72, 1459.42 -0.67 M2128.09 580.6 C1882.75 366.15, 1634.38 150.85, 1459.42 -0.67 M2128.78 560 C1973.09 423.48, 1816.17 286.49, 1483.5 -0.93 M2128.78 560 C1968.85 421.75, 1807.18 281.35, 1483.5 -0.93 M2128.71 538.74 C1963.07 397.57, 1799.27 255.51, 1508.34 -0.54 M2128.71 538.74 C2005.38 428.41, 1880.31 320.04, 1508.34 -0.54 M2128.64 517.48 C1896.37 316.18, 1665.05 115.35, 1532.42 -0.81 M2128.64 517.48 C1993.28 400.02, 1856.81 281.32, 1532.42 -0.81 M2128.57 496.22 C1964.02 352.23, 1799.07 210.65, 1557.26 -0.42 M2128.57 496.22 C1958.5 349.4, 1787.3 200.59, 1557.26 -0.42 M2128.5 474.96 C1917.92 289.21, 1705.61 106.6, 1581.34 -0.69 M2128.5 474.96 C2009.31 373.44, 1891.91 271.2, 1581.34 -0.69 M2128.43 453.7 C1937.5 286.86, 1744.78 118.67, 1605.42 -0.95 M2128.43 453.7 C1936.31 285.11, 1742.07 116.24, 1605.42 -0.95 M2128.36 432.43 C1957.18 286.03, 1787.86 139.35, 1630.26 -0.56 M2128.36 432.43 C2014.14 335.27, 1901.1 237.5, 1630.26 -0.56 M2128.3 411.17 C1967.71 270.44, 1807.78 132.76, 1654.34 -0.83 M2128.3 411.17 C2003.45 302.23, 1877.36 193, 1654.34 -0.83 M2128.23 389.91 C1999.8 278, 1870.28 166.42, 1679.17 -0.44 M2128.23 389.91 C2005.49 284.04, 1883.59 177.86, 1679.17 -0.44 M2128.16 368.65 C1996.61 255.83, 1866.07 140.4, 1703.26 -0.71 M2128.16 368.65 C2010.64 264.91, 1891.3 161.88, 1703.26 -0.71 M2128.09 347.39 C2011.78 245.68, 1895.64 144.09, 1727.34 -0.97 M2128.09 347.39 C2024.76 257.67, 1922.28 167.95, 1727.34 -0.97 M2128.77 326.79 C1986.82 204.88, 1845.96 81.78, 1752.17 -0.58 M2128.77 326.79 C2031.94 242.53, 1936.12 159.59, 1752.17 -0.58 M2128.71 305.53 C2007.54 199.94, 1886.13 95.51, 1776.26 -0.85 M2128.71 305.53 C2030.23 218.51, 1929.62 131.54, 1776.26 -0.85 M2128.64 284.27 C2030.08 199.13, 1929.22 109.91, 1801.09 -0.46 M2128.64 284.27 C2037.24 205.26, 1946.89 127.2, 1801.09 -0.46 M2128.57 263.01 C2044.9 191.83, 1962.55 119.99, 1825.17 -0.73 M2128.57 263.01 C2023.3 169.31, 1918.23 77.52, 1825.17 -0.73 M2128.5 241.75 C2057.94 179.17, 1985.61 116.6, 1849.26 -0.99 M2128.5 241.75 C2022.57 150.44, 1918.05 59.74, 1849.26 -0.99 M2128.43 220.49 C2070.87 166.21, 2011.55 114.29, 1874.09 -0.6 M2128.43 220.49 C2065.57 165.78, 2003.66 111.33, 1874.09 -0.6 M2128.36 199.23 C2068.94 149.48, 2010.27 98.81, 1898.17 -0.87 M2128.36 199.23 C2074.91 153.21, 2021.95 106.92, 1898.17 -0.87 M2128.29 177.97 C2084.2 141.1, 2043.34 105.2, 1923.01 -0.48 M2128.29 177.97 C2074.49 130.7, 2022.48 85.49, 1923.01 -0.48 M2128.22 156.71 C2072.38 107.53, 2014.37 58.47, 1947.09 -0.75 M2128.22 156.71 C2080.72 113.67, 2032.73 71.33, 1947.09 -0.75 M2128.15 135.45 C2082.19 93.09, 2034.14 52.29, 1971.17 -1.01 M2128.15 135.45 C2085.76 99.34, 2042.83 62.94, 1971.17 -1.01 M2128.08 114.19 C2085.39 78.24, 2043.61 42.31, 1996.01 -0.62 M2128.08 114.19 C2081.86 76.49, 2037.12 35.9, 1996.01 -0.62 M2128.77 93.58 C2099.03 70.04, 2071.4 43.77, 2020.09 -0.89 M2128.77 93.58 C2099.55 67.97, 2071.27 42.66, 2020.09 -0.89 M2128.7 72.32 C2101.46 48.05, 2072.67 24.29, 2044.93 -0.5 M2128.7 72.32 C2105.06 52.39, 2081.85 32.77, 2044.93 -0.5 M2128.63 51.06 C2105.52 32.87, 2082.47 11.55, 2069.01 -0.76 M2128.63 51.06 C2117.49 40.07, 2105.42 29.51, 2069.01 -0.76 M2128.56 29.8 C2117.04 19.78, 2103.17 7.47, 2093.09 -1.03 M2128.56 29.8 C2117.06 20.51, 2104.48 8.65, 2093.09 -1.03" stroke="#a5d8ff" stroke-width="2" fill="none"></path><path d="M32 0 C650.62 -0.51, 1268.28 -0.26, 2096.33 0 M32 0 C528.67 1.52, 1024.61 0.96, 2096.33 0 M2096.33 0 C2116.49 -1.11, 2127.73 9.65, 2128.33 32 M2096.33 0 C2116.2 -1.79, 2130.24 10.92, 2128.33 32 M2128.33 32 C2129.3 347.55, 2129.45 665.05, 2128.33 1109.67 M2128.33 32 C2129.9 352.2, 2130.2 671.76, 2128.33 1109.67 M2128.33 1109.67 C2127.99 1131.6, 2116.94 1142.43, 2096.33 1141.67 M2128.33 1109.67 C2130.32 1133.22, 2119.84 1141.45, 2096.33 1141.67 M2096.33 1141.67 C1431.78 1135.59, 768.93 1136.28, 32 1141.67 M2096.33 1141.67 C1579.1 1146.43, 1062.2 1145.83, 32 1141.67 M32 1141.67 C9.94 1143.2, -0.66 1130.3, 0 1109.67 M32 1141.67 C10.96 1143.27, 1.41 1129.78, 0 1109.67 M0 1109.67 C2.49 774.79, 3.25 439.76, 0 32 M0 1109.67 C-0.58 831.47, 0.01 553.45, 0 32 M0 32 C0.73 12.41, 11.7 -1.19, 32 0 M0 32 C1.8 11.51, 8.59 -1.41, 32 0" stroke="#1e1e1e" stroke-width="4" fill="none"></path></g><g transform="translate(114.33449528854908 96.3752023757952) rotate(0 763.7065067997737 108.33333333333394)"><text x="0" y="151.84000000000077" font-family="Virgil, Segoe UI Emoji" font-size="173.33333333333422px" fill="#1e1e1e" text-anchor="start" style="white-space: pre;" direction="ltr" dominant-baseline="alphabetic">Vue router layout</text></g><g stroke-linecap="round" transform="translate(1795.31910617822 807.0731614224496) rotate(0 116.08910891088817 116.08910891088817)"><path d="M27.21 42.21 C27.21 42.21, 27.21 42.21, 27.21 42.21 M27.21 42.21 C27.21 42.21, 27.21 42.21, 27.21 42.21 M5.17 91.95 C32.16 61.59, 59.41 29.23, 76.68 9.68 M5.17 91.95 C27.67 67.53, 48.34 42.78, 76.68 9.68 M1.5 120.56 C33.73 86.44, 62.42 48.74, 104.5 2.07 M1.5 120.56 C26.51 93.26, 50.12 66.73, 104.5 2.07 M5.05 140.87 C40.25 105.34, 72.24 65.78, 125.76 2 M5.05 140.87 C46.78 94.9, 85.79 49.35, 125.76 2 M9.25 160.42 C45.58 121.44, 77.31 82.73, 143.74 5.7 M9.25 160.42 C42.89 121.39, 77.12 83.43, 143.74 5.7 M18.05 174.69 C51.96 138.42, 84.25 101.58, 159.76 11.67 M18.05 174.69 C59.55 124.78, 101.06 76.81, 159.76 11.67 M26.84 188.96 C76.69 130.84, 126.12 74.26, 175.77 17.64 M26.84 188.96 C64.4 145.79, 103.69 102.09, 175.77 17.64 M38.92 199.46 C91.53 136.32, 145.16 77.24, 188.5 27.38 M38.92 199.46 C73.74 157.36, 109.88 116.46, 188.5 27.38 M50.99 209.95 C96.87 157.61, 140.01 109.97, 200.57 37.88 M50.99 209.95 C93.96 160.9, 136.99 110.61, 200.57 37.88 M65.04 218.19 C119.71 154.42, 174.34 92.45, 210.68 50.64 M65.04 218.19 C103.5 173.07, 142.68 128.21, 210.68 50.64 M80.39 224.91 C125.1 174.08, 169.99 121.96, 218.82 65.67 M80.39 224.91 C112.35 188.08, 143.63 152.77, 218.82 65.67 M96.4 230.88 C132.24 190.03, 167.13 147.17, 226.3 81.45 M96.4 230.88 C135.33 189.49, 172.09 146, 226.3 81.45 M118.32 230.06 C153.3 188.1, 194.47 143.31, 229.85 101.75 M118.32 230.06 C147.11 197.04, 176.06 164.36, 229.85 101.75 M140.24 229.23 C163.71 200.74, 188.34 176.12, 230.77 125.08 M140.24 229.23 C165.49 200.46, 191.91 171.37, 230.77 125.08 M170.68 218.6 C191.18 195.81, 209.96 176.32, 225.79 155.2 M170.68 218.6 C182.99 204.04, 194.47 189.92, 225.79 155.2 M27.89 190.46 C27.89 190.46, 27.89 190.46, 27.89 190.46 M27.89 190.46 C27.89 190.46, 27.89 190.46, 27.89 190.46 M98.01 230.21 C70.87 207.66, 44.59 184.41, 5.93 150.17 M98.01 230.21 C69.07 204.73, 40.23 178.63, 5.93 150.17 M122.09 229.94 C87.84 200.61, 59.52 174.02, 2.09 125.63 M122.09 229.94 C91.9 205.27, 62.58 178.66, 2.09 125.63 M143.15 227.05 C93.25 184.31, 40.21 135.56, 2.78 105.03 M143.15 227.05 C93.85 183.58, 42.78 138.63, 2.78 105.03 M161.2 221.54 C127.16 194.34, 97.83 168.38, 6.48 87.05 M161.2 221.54 C110.12 178.26, 59.18 132.72, 6.48 87.05 M177.73 214.71 C133.32 175.55, 90.26 139.53, 10.94 69.72 M177.73 214.71 C136.5 177.5, 94.8 140.86, 10.94 69.72 M189.74 203.95 C126.85 149.1, 64.7 93.1, 19.17 55.68 M189.74 203.95 C131.13 156.08, 74.2 105.84, 19.17 55.68 M201.74 193.19 C147.2 144.27, 89.46 93.16, 27.41 41.64 M201.74 193.19 C160.75 156.63, 120.76 120.27, 27.41 41.64 M211.49 180.45 C161.35 137.15, 111.5 94.5, 40.17 31.53 M211.49 180.45 C154.4 129.95, 96.38 81.59, 40.17 31.53 M218.97 165.75 C171.75 123.06, 121.87 79.35, 52.17 20.77 M218.97 165.75 C167.54 122.14, 117.95 78.2, 52.17 20.77 M226.44 151.06 C195.53 122.72, 162.04 96.56, 67.2 12.63 M226.44 151.06 C168.48 100.55, 110.39 50.84, 67.2 12.63 M229.39 132.42 C170.31 83.44, 114.07 29.47, 83.73 5.8 M229.39 132.42 C188.23 96.01, 148.53 61.3, 83.73 5.8 M231.59 113.13 C183.95 67.99, 132.29 28.85, 102.53 0.94 M231.59 113.13 C181.66 70.88, 133.6 27.67, 102.53 0.94 M226.99 87.93 C202.3 69.66, 178.67 46.57, 127.37 1.33 M226.99 87.93 C191.01 56.03, 154.57 26.23, 127.37 1.33 M213.34 54.86 C201.46 46.52, 190.13 35.6, 165.04 12.87 M213.34 54.86 C197.09 40.34, 182.81 26.83, 165.04 12.87" stroke="#ffc9c9" stroke-width="2" fill="none"></path><path d="M135.21 1.88 C147.82 2.18, 161.55 9.53, 173.15 16 C184.75 22.46, 196.22 30.68, 204.79 40.67 C213.37 50.65, 220.16 63.52, 224.62 75.93 C229.08 88.33, 231.43 101.97, 231.57 115.11 C231.71 128.25, 229.7 142.35, 225.46 154.78 C221.23 167.2, 214.47 179.34, 206.16 189.66 C197.85 199.99, 187.2 210, 175.6 216.71 C163.99 223.42, 149.76 227.68, 136.55 229.94 C123.34 232.2, 109.2 232.57, 96.31 230.26 C83.43 227.95, 70.58 222.67, 59.23 216.08 C47.87 209.49, 36.86 200.63, 28.18 190.71 C19.51 180.79, 11.71 168.98, 7.17 156.56 C2.63 144.14, 0.84 129.58, 0.93 116.19 C1.02 102.8, 3.31 88.56, 7.72 76.2 C12.12 63.85, 18.91 52.1, 27.34 42.06 C35.77 32.02, 46.82 22.68, 58.31 15.94 C69.79 9.2, 83.06 3.79, 96.25 1.6 C109.44 -0.59, 130.32 2.38, 137.44 2.8 C144.56 3.21, 139.31 2.2, 138.99 4.09 M138.93 3.34 C151.43 4.17, 164.66 12.03, 176.07 18.72 C187.49 25.41, 198.88 33.16, 207.42 43.48 C215.96 53.8, 223.24 67.77, 227.32 80.65 C231.41 93.53, 232.38 107.7, 231.94 120.73 C231.49 133.76, 229.68 146.89, 224.64 158.84 C219.59 170.79, 210.42 182.65, 201.69 192.43 C192.97 202.21, 183.93 210.88, 172.28 217.54 C160.62 224.19, 144.91 230.23, 131.75 232.37 C118.59 234.51, 106.1 233.18, 93.32 230.37 C80.55 227.55, 66.38 222.4, 55.09 215.46 C43.79 208.53, 33.79 199.44, 25.56 188.77 C17.34 178.1, 10.04 164.24, 5.75 151.44 C1.46 138.65, -0.8 124.92, -0.2 111.99 C0.41 99.05, 4.4 85.93, 9.36 73.83 C14.33 61.74, 20.83 49.61, 29.58 39.43 C38.33 29.26, 50.41 19.26, 61.85 12.8 C73.29 6.34, 85.12 2.26, 98.22 0.67 C111.32 -0.92, 133.87 2.36, 140.47 3.27 C147.08 4.17, 138.28 4.46, 137.87 6.08" stroke="#1e1e1e" stroke-width="4" fill="none"></path></g><g stroke-linecap="round" transform="translate(1734.289403207924 904.5880129075995) rotate(0 67.33168316831507 67.33168316831507)"><path d="M15.45 24.03 C15.45 24.03, 15.45 24.03, 15.45 24.03 M15.45 24.03 C15.45 24.03, 15.45 24.03, 15.45 24.03 M2.6 63.21 C18.24 46.5, 29.98 32.31, 54.42 3.59 M2.6 63.21 C15.57 48.35, 28.17 33.56, 54.42 3.59 M4.17 85.78 C34.14 50.92, 61.51 19.64, 76.34 2.76 M4.17 85.78 C26.25 60.02, 48.55 34.55, 76.34 2.76 M11.66 101.56 C40.36 68.75, 71.31 33.85, 94.32 6.47 M11.66 101.56 C38.42 70.86, 64.11 40.28, 94.32 6.47 M21.76 114.32 C53.03 77.63, 85.71 41.95, 108.36 14.7 M21.76 114.32 C41.54 90.52, 61.06 69.13, 108.36 14.7 M33.18 125.57 C63.09 94.43, 87.44 62.64, 120.44 25.2 M33.18 125.57 C68.13 85.19, 103.87 45.31, 120.44 25.2 M49.85 130.79 C80.2 93.77, 110.82 59.43, 127.27 41.73 M49.85 130.79 C72.61 103.27, 94.78 77.99, 127.27 41.73 M67.83 134.49 C92.92 107.87, 116.79 81.25, 133.44 59.02 M67.83 134.49 C86.54 111.14, 105.25 90.63, 133.44 59.02 M93.03 129.89 C108.56 115.45, 119.5 96.75, 131.74 85.37 M93.03 129.89 C103.13 118.66, 113.46 106.44, 131.74 85.37 M35.2 127.17 C35.2 127.17, 35.2 127.17, 35.2 127.17 M35.2 127.17 C35.2 127.17, 35.2 127.17, 35.2 127.17 M67.59 134.12 C41.87 111.81, 18.09 90.41, 1.93 77.05 M67.59 134.12 C51.31 120.88, 36.73 107.51, 1.93 77.05 M87.14 129.92 C61.51 107.59, 35.02 83.2, 2.61 56.44 M87.14 129.92 C58.21 103.13, 27.48 76.19, 2.61 56.44 M102.92 122.44 C65.38 90.22, 28.53 55.8, 7.83 39.77 M102.92 122.44 C77.68 99.87, 52.17 79.96, 7.83 39.77 M116.43 112.99 C83.9 84.37, 49.08 54.03, 15.3 25.07 M116.43 112.99 C83.61 85.05, 49.51 54.84, 15.3 25.07 M124.67 98.94 C97.36 77.54, 74.81 56.02, 28.06 14.97 M124.67 98.94 C98.14 77.01, 70.21 51.97, 28.06 14.97 M132.15 84.24 C103.04 57.64, 69.12 29.62, 40.83 4.86 M132.15 84.24 C111.36 66.3, 91.12 50.06, 40.83 4.86 M132.83 63.64 C114.35 49.89, 98.44 34.4, 61.89 1.97 M132.83 63.64 C114.63 45.54, 93.61 29.28, 61.89 1.97 M125.97 36.47 C116.89 29.05, 106.76 21.02, 89.74 4.98 M125.97 36.47 C117.39 29.5, 110.22 23.48, 89.74 4.98" stroke="#ffc9c9" stroke-width="2" fill="none"></path><path d="M99.14 7.16 C107.7 10.31, 115.37 18.2, 120.97 26.26 C126.57 34.32, 130.95 45.76, 132.75 55.53 C134.55 65.3, 134.05 75.68, 131.78 84.88 C129.51 94.08, 125.42 103.34, 119.12 110.73 C112.82 118.13, 103.07 125.29, 93.97 129.26 C84.87 133.22, 74.28 134.86, 64.53 134.54 C54.77 134.23, 43.85 132.04, 35.43 127.37 C27.02 122.7, 19.66 114.33, 14.04 106.54 C8.41 98.75, 3.65 89.99, 1.67 80.64 C-0.31 71.28, -0.19 59.89, 2.16 50.4 C4.5 40.91, 9.34 31.19, 15.74 23.7 C22.13 16.22, 31.57 9.31, 40.52 5.5 C49.47 1.69, 59.03 0.12, 69.45 0.85 C79.88 1.58, 96.97 7.7, 103.07 9.88 C109.16 12.06, 106.79 12.79, 106.04 13.93 M56.98 1.13 C65.93 -1.37, 77.86 0.52, 87.16 3.09 C96.47 5.66, 105.47 10.01, 112.82 16.53 C120.16 23.06, 127.53 32.86, 131.22 42.26 C134.92 51.66, 136.05 63.45, 134.97 72.94 C133.89 82.44, 129.72 90.8, 124.76 99.22 C119.8 107.64, 112.9 117.83, 105.24 123.46 C97.58 129.09, 88.1 131.63, 78.8 132.99 C69.5 134.34, 58.94 134.07, 49.44 131.57 C39.94 129.07, 29.27 124.5, 21.81 117.99 C14.35 111.48, 8.14 101.94, 4.68 92.53 C1.22 83.12, 0.31 71.29, 1.05 61.55 C1.79 51.82, 4.59 42.56, 9.13 34.12 C13.67 25.69, 20.14 16.33, 28.28 10.96 C36.43 5.59, 53.19 3.31, 58 1.92 C62.81 0.54, 57.11 1.52, 57.15 2.66" stroke="#1e1e1e" stroke-width="4" fill="none"></path></g><g stroke-linecap="round" transform="translate(1692.4973240000036 953.0137554818502) rotate(0 43.11881188118787 43.11881188118787)"><path d="M3.8 23.18 C3.8 23.18, 3.8 23.18, 3.8 23.18 M3.8 23.18 C3.8 23.18, 3.8 23.18, 3.8 23.18 M1.44 50.28 C14.27 35.33, 32.29 14.71, 43.43 1.98 M1.44 50.28 C12.24 38.6, 22.54 26, 43.43 1.98 M8.27 66.81 C28.17 44.64, 50.56 20.47, 60.75 6.44 M8.27 66.81 C18.36 52.82, 29.5 40.62, 60.75 6.44 M20.35 77.31 C38.1 56.6, 53.65 39.07, 73.49 16.18 M20.35 77.31 C36.39 59.83, 52.88 40.2, 73.49 16.18 M35.7 84.03 C55.42 60.04, 73.74 40.84, 84.25 28.19 M35.7 84.03 C51.68 64.76, 68.19 45.31, 84.25 28.19 M55.65 85.48 C65.25 74.89, 75.4 63.11, 85.83 50.76 M55.65 85.48 C65.12 75.29, 73.73 64.62, 85.83 50.76 M9.51 69.84 C9.51 69.84, 9.51 69.84, 9.51 69.84 M9.51 69.84 C9.51 69.84, 9.51 69.84, 9.51 69.84 M51.71 85.32 C36 73.44, 23.56 58.63, 1.14 41.36 M51.71 85.32 C37.96 74.05, 24.5 61.47, 1.14 41.36 M67.49 77.84 C46.11 60.13, 23.89 43.03, 4.09 22.73 M67.49 77.84 C45.87 58.14, 23.3 38.39, 4.09 22.73 M78.74 66.42 C52.49 43.94, 29.3 21.53, 15.35 11.31 M78.74 66.42 C64.07 55.38, 49.53 42.58, 15.35 11.31 M86.22 51.72 C66.58 36.18, 45.9 18.53, 31.13 3.83 M86.22 51.72 C73.68 41.27, 61.26 29.61, 31.13 3.83 M83.89 28.49 C75.55 22.36, 69.12 17.9, 55.21 3.56 M83.89 28.49 C76.61 22.9, 69.87 16.17, 55.21 3.56" stroke="#ffc9c9" stroke-width="2" fill="none"></path><path d="M44.6 0.82 C51.83 0.75, 61.12 4.35, 67.68 8.83 C74.25 13.31, 80.98 20.59, 84.01 27.71 C87.04 34.84, 87.4 43.91, 85.85 51.6 C84.31 59.29, 80.25 68.14, 74.73 73.86 C69.21 79.59, 60.28 84.44, 52.75 85.97 C45.21 87.51, 36.79 85.8, 29.54 83.07 C22.29 80.35, 14.15 75.69, 9.27 69.63 C4.39 63.56, 1.12 54.48, 0.25 46.68 C-0.61 38.89, 0.65 29.73, 4.07 22.87 C7.49 16.01, 13.78 9.2, 20.76 5.51 C27.73 1.82, 41.24 1.37, 45.91 0.75 C50.58 0.13, 48.72 1.01, 48.77 1.78 M52.79 -0.06 C60.23 0.61, 69.02 5.9, 74.37 11.36 C79.72 16.81, 83.17 25.1, 84.9 32.66 C86.63 40.23, 87.32 49.43, 84.74 56.75 C82.17 64.06, 75.79 71.65, 69.43 76.57 C63.08 81.49, 54.31 85.65, 46.62 86.26 C38.93 86.87, 30.14 83.83, 23.3 80.24 C16.46 76.66, 9.48 71.54, 5.59 64.76 C1.71 57.97, -0.36 47.2, -0.02 39.53 C0.32 31.85, 3.06 25.03, 7.65 18.71 C12.24 12.4, 20.43 4.41, 27.53 1.65 C34.63 -1.1, 46.35 2.32, 50.25 2.19 C54.15 2.07, 50.99 0.19, 50.93 0.9" stroke="#1e1e1e" stroke-width="4" fill="none"></path></g><g stroke-linecap="round" transform="translate(114.33449543775714 385.4664219718834) rotate(0 651.4828975170185 326.8924786127791)"><path d="M32 0 C305.89 -1.18, 580.07 -0.65, 1270.97 0 C1291 2.95, 1301.97 9.71, 1302.97 32 C1299.73 196.82, 1298.35 364.21, 1302.97 621.78 C1303.27 645.08, 1288.76 652.72, 1270.97 653.78 C782.99 657.05, 295.96 657.77, 32 653.78 C10.05 654.08, 3.15 641.14, 0 621.78 C-3.72 463.84, -4.39 303.35, 0 32 C2.89 9.26, 11.84 0.49, 32 0" stroke="none" stroke-width="0" fill="#b2f2bb"></path><path d="M32 0 C388.15 2.16, 744.3 2.24, 1270.97 0 M32 0 C456.17 -4.04, 879.5 -4.18, 1270.97 0 M1270.97 0 C1291.94 -0.42, 1304.54 9.5, 1302.97 32 M1270.97 0 C1290.73 1.26, 1304.16 9.88, 1302.97 32 M1302.97 32 C1305.14 207.61, 1304.41 383.93, 1302.97 621.78 M1302.97 32 C1302 177.79, 1302.01 324.34, 1302.97 621.78 M1302.97 621.78 C1304.95 641.43, 1292.56 653.29, 1270.97 653.78 M1302.97 621.78 C1301.02 645.04, 1291.06 653.67, 1270.97 653.78 M1270.97 653.78 C906.43 649.17, 543.55 649.73, 32 653.78 M1270.97 653.78 C859.12 649.15, 446.96 648.76, 32 653.78 M32 653.78 C11.64 653.07, 1.89 642.42, 0 621.78 M32 653.78 C11.62 655.53, 2.12 644.89, 0 621.78 M0 621.78 C2.96 444.2, 2.96 267, 0 32 M0 621.78 C1 476.76, 0.35 331.43, 0 32 M0 32 C-0.48 9.88, 9.48 0.41, 32 0 M0 32 C1.81 10.45, 10.37 2.06, 32 0" stroke="#1e1e1e" stroke-width="4" fill="none"></path></g><g stroke-linecap="round" transform="translate(166.13083934033057 530.242468859873) rotate(0 101.29062717579109 148.07308377265872)"><path d="M7.86 8.16 C7.86 8.16, 7.86 8.16, 7.86 8.16 M7.86 8.16 C7.86 8.16, 7.86 8.16, 7.86 8.16 M8.78 31.49 C15.36 24.13, 24.65 14.05, 34.37 2.05 M8.78 31.49 C18.69 20.51, 28.43 8.21, 34.37 2.05 M8.39 56.32 C24.21 36.08, 45.02 14.79, 55.63 1.98 M8.39 56.32 C28.02 33.33, 46.17 12.2, 55.63 1.98 M8.66 80.4 C31 55.86, 48.65 31.43, 76.89 1.91 M8.66 80.4 C35.35 51.13, 62.17 19.99, 76.89 1.91 M8.27 105.24 C38.89 68.72, 66.69 37.96, 97.49 2.6 M8.27 105.24 C41.63 68.62, 75.33 30.24, 97.49 2.6 M8.54 129.32 C38.43 95.99, 70.16 63.06, 118.76 2.53 M8.54 129.32 C38.75 92.97, 71.03 58.04, 118.76 2.53 M8.15 154.16 C58.75 98.41, 106.68 41.47, 140.02 2.46 M8.15 154.16 C57.74 96.72, 106.98 40.15, 140.02 2.46 M8.41 178.24 C59.44 117.01, 110.33 59.81, 161.28 2.39 M8.41 178.24 C45.02 137.57, 81.17 95.98, 161.28 2.39 M8.02 203.08 C43.27 161.95, 76.37 120.97, 181.22 3.83 M8.02 203.08 C71.28 129.55, 134.28 56.46, 181.22 3.83 M8.29 227.16 C61.93 163.13, 116.58 97.63, 196.58 10.56 M8.29 227.16 C57.3 169.24, 109.06 110.29, 196.58 10.56 M7.9 252 C75.39 174.14, 144.22 96.76, 206.69 23.32 M7.9 252 C49.82 204.28, 91.49 157.19, 206.69 23.32 M4.23 280.61 C52.1 222.48, 102.77 167.7, 212.86 40.61 M4.23 280.61 C56.82 222.41, 106.63 163.53, 212.86 40.61 M14.34 293.37 C85.69 212.23, 154.73 129.01, 212.47 65.44 M14.34 293.37 C62.59 240.53, 108.97 188.06, 212.47 65.44 M32.32 297.07 C86 234.08, 140.96 169.97, 212.73 89.53 M32.32 297.07 C83.89 237.31, 136.72 177.82, 212.73 89.53 M53.58 297 C88.09 257.76, 122.96 218.03, 213 113.61 M53.58 297 C104.59 239.39, 155.64 180.23, 213 113.61 M74.84 296.93 C123.04 239.5, 172.52 182.3, 212.61 138.44 M74.84 296.93 C119.92 243.45, 166.97 190.14, 212.61 138.44 M96.1 296.86 C138.85 246.55, 181.27 196.54, 212.88 162.53 M96.1 296.86 C138.87 246.06, 184.02 195.53, 212.88 162.53 M117.36 296.79 C145.2 266.29, 171.43 235.73, 212.49 187.36 M117.36 296.79 C138.14 272.89, 156.82 250.67, 212.49 187.36 M138.62 296.73 C153.53 280.09, 168.39 261.77, 212.75 211.44 M138.62 296.73 C159.41 272.69, 179.74 249.66, 212.75 211.44 M159.88 296.66 C177.16 277.5, 192.87 259.31, 213.02 235.53 M159.88 296.66 C178.22 274.39, 196.85 254.32, 213.02 235.53 M176.55 301.87 C185.63 291.22, 191.85 285.36, 206.72 267.15 M176.55 301.87 C186.46 292.01, 195.46 279.92, 206.72 267.15" stroke="#a5d8ff" stroke-width="2" fill="none"></path><path d="M32 0 C82.43 2.96, 135.47 3, 170.58 0 M32 0 C69.29 -0.95, 105.21 -0.83, 170.58 0 M170.58 0 C190.92 -1.16, 202.85 11.33, 202.58 32 M170.58 0 C192.03 -2.14, 201.04 10.2, 202.58 32 M202.58 32 C201.9 95.41, 203.64 156.29, 202.58 264.15 M202.58 32 C202.08 90.47, 201.75 148.91, 202.58 264.15 M202.58 264.15 C203.64 285.42, 190.29 295.26, 170.58 296.15 M202.58 264.15 C201.12 286.06, 193 294.42, 170.58 296.15 M170.58 296.15 C121.97 295.93, 71.81 296.18, 32 296.15 M170.58 296.15 C131.53 295.59, 92.91 296.23, 32 296.15 M32 296.15 C11.41 294.74, -0.82 285.49, 0 264.15 M32 296.15 C8.48 296.33, -0.36 287.51, 0 264.15 M0 264.15 C0.57 198.47, 0.25 133.31, 0 32 M0 264.15 C0.64 198.76, -0.17 133.01, 0 32 M0 32 C1.05 11.02, 10.92 -0.69, 32 0 M0 32 C-0.09 9.37, 11.01 -1.82, 32 0" stroke="#1e1e1e" stroke-width="4" fill="none"></path></g><g stroke-linecap="round" transform="translate(413.1608418611104 530.2424689693034) rotate(0 383.29460140705123 208.88110054788558)"><path d="M32 0 C270.64 3.83, 510.19 3.87, 734.59 0 C752.51 -3.09, 766.54 9.93, 766.59 32 C762.6 104.09, 761.71 173.88, 766.59 385.76 C765.69 404.03, 756.7 421.24, 734.59 417.76 C510.32 417.75, 287.56 417.89, 32 417.76 C9.97 419.64, 2.85 403.86, 0 385.76 C-2.23 259.1, -1.87 136.88, 0 32 C2.99 11.65, 11.18 3.05, 32 0" stroke="none" stroke-width="0" fill="#ffc9c9"></path><path d="M32 0 C239.96 1.39, 446.37 0.18, 734.59 0 M32 0 C252.42 -1.11, 472.89 -1.25, 734.59 0 M734.59 0 C757.91 0.54, 765.97 10.81, 766.59 32 M734.59 0 C753.86 1.34, 764.82 12.56, 766.59 32 M766.59 32 C765.39 154.56, 767.53 275.58, 766.59 385.76 M766.59 32 C764.83 112.38, 766.06 194.34, 766.59 385.76 M766.59 385.76 C768.16 406.03, 754.34 416.5, 734.59 417.76 M766.59 385.76 C766.99 408.46, 755.77 419.55, 734.59 417.76 M734.59 417.76 C586.12 417.34, 437.89 417.15, 32 417.76 M734.59 417.76 C461.58 415.3, 189.63 415.49, 32 417.76 M32 417.76 C9.51 415.79, 1.02 408.5, 0 385.76 M32 417.76 C9.36 417.36, 0.04 408.89, 0 385.76 M0 385.76 C-0.37 295.07, 0.05 207.59, 0 32 M0 385.76 C0.47 262.71, 0.37 139.37, 0 32 M0 32 C-1.68 9.61, 12.27 1.35, 32 0 M0 32 C1.84 9.82, 12.79 1.54, 32 0" stroke="#1e1e1e" stroke-width="4" fill="none"></path></g><g stroke-linecap="round" transform="translate(1222.7762451001 530.2424689693034) rotate(0 78.27003009038344 41.90587558653169)"><path d="M3.11 8 C3.11 8, 3.11 8, 3.11 8 M3.11 8 C3.11 8, 3.11 8, 3.11 8 M0.75 35.1 C12.52 24.19, 22.72 11.86, 30.93 0.38 M0.75 35.1 C10.07 24.44, 19.32 15.56, 30.93 0.38 M1.01 59.18 C16.26 42.84, 32.02 24.65, 52.19 0.32 M1.01 59.18 C18.43 39.6, 35.97 20.08, 52.19 0.32 M5.87 77.98 C29.45 53.66, 49.66 29.01, 73.45 0.25 M5.87 77.98 C26.75 54.52, 47.08 32.93, 73.45 0.25 M21.23 84.7 C46.03 59.21, 70.44 32.69, 94.71 0.18 M21.23 84.7 C41.05 59.86, 62.91 36.78, 94.71 0.18 M42.49 84.64 C71.91 51.53, 95.06 23.26, 115.31 0.86 M42.49 84.64 C71.26 53.51, 98.42 20.81, 115.31 0.86 M63.75 84.57 C91.2 55.32, 112.16 28.7, 136.57 0.79 M63.75 84.57 C90.03 54.45, 114.52 25.91, 136.57 0.79 M85.01 84.5 C99.6 68.42, 116.14 50.02, 152.58 6.76 M85.01 84.5 C108.46 58.07, 131.28 31.83, 152.58 6.76 M106.27 84.43 C115.83 73.19, 126.37 59.55, 156.13 27.07 M106.27 84.43 C124.31 62.13, 144.07 41.55, 156.13 27.07 M127.53 84.36 C135.52 74.43, 146.85 61.65, 156.4 51.15 M127.53 84.36 C137.98 72.77, 147.64 61.03, 156.4 51.15" stroke="#a5d8ff" stroke-width="2" fill="none"></path><path d="M20.95 0 C48.04 -0.73, 75.21 -1.31, 135.59 0 M20.95 0 C54.84 -0.23, 90.11 -0.99, 135.59 0 M135.59 0 C150.95 1.5, 156.31 7.05, 156.54 20.95 M135.59 0 C149.52 -0.88, 157.97 8.92, 156.54 20.95 M156.54 20.95 C155.74 28.87, 157.28 37.67, 156.54 62.86 M156.54 20.95 C156.21 37.18, 156.39 53.09, 156.54 62.86 M156.54 62.86 C154.67 77.63, 150.04 83.93, 135.59 83.81 M156.54 62.86 C154.59 75.94, 148.34 83.18, 135.59 83.81 M135.59 83.81 C107.35 85.32, 77.63 83.21, 20.95 83.81 M135.59 83.81 C106.27 85.54, 76.19 85.02, 20.95 83.81 M20.95 83.81 C7.73 83.42, 1.03 78.44, 0 62.86 M20.95 83.81 C5.33 83.12, 1.64 75.99, 0 62.86 M0 62.86 C-1.82 53.11, -1.93 39.03, 0 20.95 M0 62.86 C-1.04 47.59, -0.65 31.84, 0 20.95 M0 20.95 C-1.96 7.94, 6.16 1.61, 20.95 0 M0 20.95 C1.15 5.01, 5.86 -1.68, 20.95 0" stroke="#1e1e1e" stroke-width="4" fill="none"></path></g><g stroke-linecap="round" transform="translate(166.13083887991888 424.3499108824035) rotate(0 603.6526920148899 35.16887710515766)"><path d="M7.1 2.2 C7.1 2.2, 7.1 2.2, 7.1 2.2 M7.1 2.2 C7.1 2.2, 7.1 2.2, 7.1 2.2 M12.62 20.25 C17.94 13.2, 21.26 10.06, 25.08 5.91 M12.62 20.25 C15.69 17.23, 19.19 14.04, 25.08 5.91 M3.05 55.65 C11.47 43.22, 25.13 31.07, 45.69 6.59 M3.05 55.65 C13.78 44.22, 24.12 32.27, 45.69 6.59 M11.18 70.67 C32.17 46.91, 50.7 27.55, 66.95 6.52 M11.18 70.67 C24.48 55.2, 38.22 38.58, 66.95 6.52 M25.88 78.15 C48.57 50.35, 70.62 25.73, 88.21 6.45 M25.88 78.15 C49.93 51.93, 73.54 24.64, 88.21 6.45 M47.14 78.08 C71.34 52.95, 91.49 24.9, 109.47 6.38 M47.14 78.08 C60.98 61.89, 74.38 47.19, 109.47 6.38 M68.4 78.01 C92.77 51.25, 117.02 22.03, 130.73 6.32 M68.4 78.01 C85.64 55.85, 103.79 35.13, 130.73 6.32 M89.66 77.94 C110.24 54.23, 132.23 29.52, 151.99 6.25 M89.66 77.94 C106.82 59.88, 121.74 42.5, 151.99 6.25 M110.92 77.87 C132.37 53.42, 150.93 31.22, 173.25 6.18 M110.92 77.87 C133.06 52.8, 155.05 26.72, 173.25 6.18 M132.18 77.81 C156.78 51.62, 180.4 20.35, 194.51 6.11 M132.18 77.81 C149.12 58.72, 167.18 39.17, 194.51 6.11 M153.44 77.74 C178.26 50.54, 199.65 24.41, 215.77 6.04 M153.44 77.74 C173.47 55.56, 192.75 30.77, 215.77 6.04 M174.71 77.67 C190.45 59.03, 205.42 43.55, 237.03 5.97 M174.71 77.67 C193.72 54.12, 214.28 31.06, 237.03 5.97 M195.97 77.6 C213.34 59.56, 226.26 40, 258.29 5.9 M195.97 77.6 C208.49 61.1, 223.61 47.29, 258.29 5.9 M217.23 77.53 C240.86 51.7, 264.28 21.32, 278.89 6.59 M217.23 77.53 C235.29 56.26, 252.15 37.44, 278.89 6.59 M238.49 77.46 C263.53 50.22, 288.93 22.63, 300.16 6.52 M238.49 77.46 C253.15 60.03, 266.26 43.71, 300.16 6.52 M259.09 78.15 C278.49 55.17, 299.09 31.59, 321.42 6.45 M259.09 78.15 C282.18 52, 306.4 24.25, 321.42 6.45 M280.35 78.08 C295.47 58.14, 314.02 40.65, 342.68 6.38 M280.35 78.08 C296.8 57.23, 313.84 38.49, 342.68 6.38 M301.61 78.01 C323.77 51.3, 350.1 24.76, 363.94 6.31 M301.61 78.01 C315.96 62.92, 328.65 46.83, 363.94 6.31 M322.87 77.94 C344.45 51.53, 368.18 25.28, 385.2 6.24 M322.87 77.94 C336.36 62.16, 348.35 47.71, 385.2 6.24 M344.13 77.87 C357.26 63.77, 370.91 49.84, 406.46 6.17 M344.13 77.87 C356.39 62.85, 370.46 48.12, 406.46 6.17 M365.39 77.8 C380.85 63.2, 392.62 46.17, 427.72 6.1 M365.39 77.8 C387.9 51.23, 410.98 23.76, 427.72 6.1 M386.65 77.73 C404.09 53.88, 425.08 32.15, 448.98 6.04 M386.65 77.73 C406.81 56.19, 425.2 32.84, 448.98 6.04 M407.91 77.66 C426.08 56.97, 444.1 39.06, 470.24 5.97 M407.91 77.66 C426.37 56.9, 445.99 34.6, 470.24 5.97 M429.17 77.59 C452.83 50.05, 475.4 24.35, 491.5 5.9 M429.17 77.59 C446.47 57.39, 464.81 37.71, 491.5 5.9 M450.43 77.53 C471.72 51.97, 492.65 29.66, 512.1 6.58 M450.43 77.53 C475.06 49.86, 498.06 22.14, 512.1 6.58 M471.69 77.46 C486.66 60.71, 503.31 40.78, 533.36 6.51 M471.69 77.46 C488.31 57.6, 505 37.99, 533.36 6.51 M492.3 78.14 C511.49 57.15, 530.26 32.6, 554.62 6.45 M492.3 78.14 C507.98 61.83, 522 45.44, 554.62 6.45 M513.56 78.07 C528.14 59.33, 540.91 42.26, 575.88 6.38 M513.56 78.07 C537.41 51.37, 559.48 25.07, 575.88 6.38 M534.82 78 C556.01 55.43, 573.65 31.05, 597.14 6.31 M534.82 78 C553.62 56.39, 571.87 36.63, 597.14 6.31 M556.08 77.94 C569.01 62.4, 583.31 50.23, 618.4 6.24 M556.08 77.94 C575.73 57.55, 592.17 36.97, 618.4 6.24 M577.34 77.87 C599.09 53.14, 622.14 29.02, 639.66 6.17 M577.34 77.87 C591.86 61.18, 604.53 46.04, 639.66 6.17 M598.6 77.8 C621.7 47.69, 645.52 20.87, 660.92 6.1 M598.6 77.8 C615.48 57.65, 632.47 36.02, 660.92 6.1 M619.86 77.73 C634.34 60.76, 646.82 48.65, 682.18 6.03 M619.86 77.73 C641.14 54.6, 661 30.82, 682.18 6.03 M641.12 77.66 C659.83 57.22, 677.53 35.91, 703.44 5.96 M641.12 77.66 C655.04 60.47, 670.19 45.11, 703.44 5.96 M662.38 77.59 C683.79 50.53, 711.55 22.98, 724.7 5.89 M662.38 77.59 C684.7 53.17, 705.96 29.2, 724.7 5.89 M683.64 77.52 C702.72 57.75, 722.77 33.3, 745.31 6.58 M683.64 77.52 C703.88 55.84, 724.08 31.26, 745.31 6.58 M704.9 77.45 C728.41 50.79, 749.29 24.44, 766.57 6.51 M704.9 77.45 C716.87 61.48, 731.93 46.11, 766.57 6.51 M725.5 78.14 C745.64 54.87, 767.83 27.62, 787.83 6.44 M725.5 78.14 C738.08 61.33, 752.28 47.67, 787.83 6.44 M746.76 78.07 C769.93 53.75, 791.03 29.37, 809.09 6.37 M746.76 78.07 C767.86 53.12, 789.09 30.09, 809.09 6.37 M768.02 78 C780.48 63.72, 792.3 47.35, 830.35 6.3 M768.02 78 C784.6 59.27, 801.54 39.91, 830.35 6.3 M789.28 77.93 C805.91 57.48, 826.43 35.34, 851.61 6.23 M789.28 77.93 C811.06 52.29, 832.5 27.41, 851.61 6.23 M810.54 77.86 C833.65 53.74, 856.33 27.06, 872.87 6.17 M810.54 77.86 C827.13 59.51, 844.13 39.52, 872.87 6.17 M831.8 77.79 C851.13 56.47, 870.21 35.37, 894.13 6.1 M831.8 77.79 C849.02 59.9, 864.17 39.7, 894.13 6.1 M853.06 77.72 C865.6 63, 881.17 48.8, 915.39 6.03 M853.06 77.72 C873.95 51.9, 896.75 27.13, 915.39 6.03 M874.32 77.66 C886.67 63.18, 903.45 46.4, 936.65 5.96 M874.32 77.66 C898.86 49.01, 923.42 21.33, 936.65 5.96 M895.58 77.59 C909.37 61.58, 922.81 46.68, 957.91 5.89 M895.58 77.59 C913.07 58.16, 930.24 38.28, 957.91 5.89 M916.84 77.52 C928.95 63.15, 941.81 48.45, 978.51 6.57 M916.84 77.52 C930.22 61.71, 942.34 47.18, 978.51 6.57 M938.1 77.45 C962.14 49.99, 985.79 21.15, 999.77 6.51 M938.1 77.45 C956.61 54.92, 975.86 32.19, 999.77 6.51 M958.71 78.13 C976.82 61.73, 992.18 42.39, 1021.03 6.44 M958.71 78.13 C976.83 57.29, 994.49 37.78, 1021.03 6.44 M979.97 78.07 C1003.98 52.7, 1025.43 27.85, 1042.29 6.37 M979.97 78.07 C1004.29 49.23, 1029.73 20.61, 1042.29 6.37 M1001.23 78 C1027.83 50.5, 1050.28 20.43, 1063.55 6.3 M1001.23 78 C1023.66 52.72, 1046.16 25.6, 1063.55 6.3 M1022.49 77.93 C1042.36 53.64, 1061.95 31.58, 1084.81 6.23 M1022.49 77.93 C1045.22 52.02, 1067.23 28.12, 1084.81 6.23 M1043.75 77.86 C1062.44 55.17, 1079.03 36.3, 1106.07 6.16 M1043.75 77.86 C1059.81 60.03, 1074.83 40.35, 1106.07 6.16 M1065.01 77.79 C1086.51 54.37, 1105.66 31.64, 1127.33 6.09 M1065.01 77.79 C1082.19 59.86, 1098.06 40.01, 1127.33 6.09 M1086.27 77.72 C1102.34 59.9, 1118.82 39.47, 1148.59 6.02 M1086.27 77.72 C1109.15 51.27, 1132.22 24.81, 1148.59 6.02 M1107.53 77.65 C1126.51 52.18, 1149.1 30.32, 1169.85 5.95 M1107.53 77.65 C1128.41 53.41, 1149.71 29.17, 1169.85 5.95 M1128.79 77.58 C1146.29 56.66, 1167.62 34.36, 1193.74 2.87 M1128.79 77.58 C1154.27 48.68, 1180.39 18.98, 1193.74 2.87 M1150.05 77.51 C1172.47 52.8, 1190.94 28.03, 1207.78 11.1 M1150.05 77.51 C1172.66 51.02, 1195.86 25.22, 1207.78 11.1 M1171.31 77.44 C1185.57 59.95, 1201.64 43.35, 1208.05 35.18 M1171.31 77.44 C1183.79 61.19, 1197.18 46.23, 1208.05 35.18 M1198.47 70.58 C1199.28 68.76, 1201.89 67.2, 1207 60.77 M1198.47 70.58 C1200.79 69.04, 1202.34 66.44, 1207 60.77" stroke="#a5d8ff" stroke-width="2" fill="none"></path><path d="M17.58 0 C320.28 -1.56, 621.03 -1.46, 1189.72 0 M17.58 0 C390.07 -2.75, 762.27 -2.12, 1189.72 0 M1189.72 0 C1201.38 -1.53, 1208.85 5.94, 1207.31 17.58 M1189.72 0 C1202.87 1.2, 1207.09 7.21, 1207.31 17.58 M1207.31 17.58 C1208.36 26.51, 1205.54 36.81, 1207.31 52.75 M1207.31 17.58 C1206.4 28.07, 1206.32 37.7, 1207.31 52.75 M1207.31 52.75 C1207.54 65.17, 1203.34 69.81, 1189.72 70.34 M1207.31 52.75 C1205.44 63.17, 1201.42 70.24, 1189.72 70.34 M1189.72 70.34 C763.05 70.97, 336.03 69.78, 17.58 70.34 M1189.72 70.34 C821.43 67.15, 453.11 67.55, 17.58 70.34 M17.58 70.34 C5.05 69.66, 1.85 64.48, 0 52.75 M17.58 70.34 C6.42 72.34, 1.43 66.19, 0 52.75 M0 52.75 C0.45 42.01, -1.83 31.72, 0 17.58 M0 52.75 C-0.34 40.85, 0.1 27.68, 0 17.58 M0 17.58 C0.34 6, 4.72 0.13, 17.58 0 M0 17.58 C-1.89 6.23, 7.18 -1.96, 17.58 0" stroke="#1e1e1e" stroke-width="4" fill="none"></path></g><g stroke-linecap="round" transform="translate(1222.77624487906 655.3118186828106) rotate(0 78.27003009038344 120.26251428017349)"><path d="M7.86 8.16 C7.86 8.16, 7.86 8.16, 7.86 8.16 M7.86 8.16 C7.86 8.16, 7.86 8.16, 7.86 8.16 M0.91 40.54 C13.37 28.85, 21.6 12.91, 36.34 -0.21 M0.91 40.54 C8.14 33.25, 16.15 24.71, 36.34 -0.21 M1.18 64.62 C12.7 51.88, 25.05 35.48, 56.94 0.47 M1.18 64.62 C16.22 46.16, 31.54 27.4, 56.94 0.47 M0.79 89.46 C26.11 61.04, 48.79 31.42, 78.2 0.41 M0.79 89.46 C26.41 58.36, 52.29 28.94, 78.2 0.41 M1.05 113.54 C26.47 82.43, 54.05 53.34, 99.46 0.34 M1.05 113.54 C33.45 75.58, 65.29 39.55, 99.46 0.34 M0.66 138.38 C32.47 100.44, 64.54 65.23, 120.72 0.27 M0.66 138.38 C35.49 100.51, 70.2 60.03, 120.72 0.27 M0.93 162.46 C53.95 102.38, 104.31 43.79, 139.36 3.22 M0.93 162.46 C37.19 119.46, 75.08 75.28, 139.36 3.22 M0.54 187.3 C43.53 135.22, 91.81 80.97, 152.09 12.96 M0.54 187.3 C43.56 138.33, 86.22 90.34, 152.09 12.96 M0.81 211.38 C47.98 158.66, 92.69 105.11, 156.95 31.76 M0.81 211.38 C50.78 156.05, 99.75 98.43, 156.95 31.76 M6.32 229.42 C49.23 180.94, 91.53 132.49, 156.56 56.59 M6.32 229.42 C65.43 161.32, 123.24 94.16, 156.56 56.59 M19.05 239.17 C47.23 204.94, 76.03 173.39, 156.83 80.68 M19.05 239.17 C64.74 185.31, 113.34 131.36, 156.83 80.68 M39 240.61 C86.52 184.55, 134.71 132.89, 156.44 105.51 M39 240.61 C66.79 207.79, 96.22 175.54, 156.44 105.51 M60.26 240.54 C82.8 212.68, 108.65 188.05, 156.7 129.59 M60.26 240.54 C83.22 214.61, 106.24 189.42, 156.7 129.59 M81.52 240.47 C109.9 210, 136.73 179.19, 156.97 153.68 M81.52 240.47 C104.58 212.87, 128.51 186.67, 156.97 153.68 M102.78 240.4 C120.12 218.96, 137.76 197.71, 156.58 178.51 M102.78 240.4 C122.49 217.96, 142.88 194.51, 156.58 178.51 M123.39 241.08 C130.09 231.33, 135.84 222.78, 156.85 202.59 M123.39 241.08 C135.92 225, 149.62 209.56, 156.85 202.59" stroke="#ffc9c9" stroke-width="2" fill="none"></path><path d="M32 0 C54.66 0.76, 77.61 0.28, 124.54 0 M32 0 C63 0.6, 95.1 -0.28, 124.54 0 M124.54 0 C145.42 -1.04, 155.94 10.6, 156.54 32 M124.54 0 C146.44 -1.69, 156.46 10, 156.54 32 M156.54 32 C157.06 86.3, 156.15 139.03, 156.54 208.53 M156.54 32 C156.09 99.29, 157.33 168.79, 156.54 208.53 M156.54 208.53 C156.24 227.93, 146.29 240.69, 124.54 240.53 M156.54 208.53 C158.54 228.31, 144.44 242.76, 124.54 240.53 M124.54 240.53 C99.04 242.54, 70.61 240.16, 32 240.53 M124.54 240.53 C96.49 240.59, 67.98 241.6, 32 240.53 M32 240.53 C10.94 242.12, -1.02 228.56, 0 208.53 M32 240.53 C11.88 242.21, -1.97 227.93, 0 208.53 M0 208.53 C0.53 139.83, 0.27 68.61, 0 32 M0 208.53 C1.3 144.84, 1.1 81.43, 0 32 M0 32 C0.88 9.48, 8.74 -0.61, 32 0 M0 32 C0.45 9.31, 11.8 -0.12, 32 0" stroke="#1e1e1e" stroke-width="4" fill="none"></path></g></svg>
